<?xml version="1.0" encoding="utf-8" ?>
<svg baseProfile="full" height="200mm" version="1.1" viewBox="0,0,200,200" width="200mm" xmlns="http://www.w3.org/2000/svg" xmlns:ev="http://www.w3.org/2001/xml-events" xmlns:xlink="http://www.w3.org/1999/xlink"><defs /><rect fill="#1a1a1a" height="200" width="200" x="0" y="0" /><text alignment-baseline="middle" fill="#e1ed5e" style="dominant-baseline: central; font-size:9.0px; font-family:Arial;" text-anchor="middle" x="100.0" y="100.0">2020</text><line stroke="#e1ed5e" stroke-width="0.3" x1="100.0" x2="100.0" y1="15.0" y2="10.0" /><path d="M 100.0 14.0 a86.0,86.0 0 0,1 42.35913384403234,11.155469271406648" fill="none" id="id13" stroke="none" /><text fill="#e1ed5e" style="font-size:6.75px; font-family:Arial;" text-anchor="middle"><textPath startOffset="22.145653131862478" xlink:href="#id13">January</textPath></text><path d="M 100.0 79.0 l 0.0 -62.862089552238814 a83.86208955223881,83.86208955223881 0 0,0 1.4396042831725313,0.012357271356761266 l -1.0791113583236764 62.852826679076486" fill="#4cd6ff" stroke="none" /><path d="M 100.36049292484886 79.00309439819443 l 1.0771743814140409 -62.74000748479813 a83.74925373134329,83.74925373134329 0 0,0 1.4372436191089242,0.03701829737414849 l -2.154031314593706 62.71227147007393" fill="#4cd9ff" stroke="none" /><path d="M 100.72087961077811 79.0123766808444 l 2.155752818141833 -62.762391167552515 a83.79940298507464,83.79940298507464 0 0,0 1.4372564872501556,0.06172197769656485 l -3.232835065992825 62.716136621430124" fill="#4cd8ff" stroke="none" /><path d="M 102.15924093988457 79.11130261209362 l 6.471277324310766 -62.6037378431582 a83.93731343283582,83.93731343283582 0 0,0 1.431986948526965,0.16045712442139112 l -7.5450001744385276 62.48342495822983" fill="#4dd4ff" stroke="none" /><path d="M 102.51750503828377 79.15144685158666 l 7.53147328169551 -62.37140288161149 a83.8244776119403,83.8244776119403 0 0,0 1.4271004673660697,0.18476672704725103 l -8.601051570952372 62.23292455836384" fill="#4cd7ff" stroke="none" /><path d="M 102.87502721639298 79.19773525538626 l 8.62508164917894 -62.40679423384121 a84.0,84.0 0 0,0 1.4266995775692721,0.20967570680447034 l -9.695106332355895 62.24953745373786" fill="#4dd2ff" stroke="none" /><path d="M 103.23170211078529 79.25015418208739 l 9.65844821886042 -62.01416606834064 a83.76179104477612,83.76179104477612 0 0,0 1.41885492662832,0.23347203823906845 l -10.72158064854181 61.839228031605906" fill="#4cd9ff" stroke="none" /><line stroke="#e1ed5e" stroke-width="0.3" x1="143.13028292997686" x2="145.6673583964461" y1="26.7553504044142" y2="22.446841604673864" /><path d="M 143.63769802327073 25.89364864446614 a86.0,86.0 0 0,1 29.32050498858742,28.57503671076993" fill="none" id="id14" stroke="none" /><text fill="#e1ed5e" style="font-size:6.75px; font-family:Arial;" text-anchor="middle"><textPath startOffset="20.669276256404974" xlink:href="#id14">February</textPath></text><line stroke="#e1ed5e" stroke-width="0.3" x1="172.87174338648825" x2="177.1583165268699" y1="56.24261187166439" y2="53.66864786411523" /><path d="M 173.72905801456457 55.72781907015455 a86.0,86.0 0 0,1 12.242430191666344,42.057860355516425" fill="none" id="id15" stroke="none" /><text fill="#e1ed5e" style="font-size:6.75px; font-family:Arial;" text-anchor="middle"><textPath startOffset="22.145653131862474" xlink:href="#id15">March</textPath></text><line stroke="#e1ed5e" stroke-width="0.3" x1="184.99686870605535" x2="189.99668451229388" y1="99.2704041080226" y2="99.22748670261217" /><path d="M 185.99683186730306 99.26182062694052 a86.0,86.0 0 0,1 -10.086455211305974,41.156179273409016" fill="none" id="id16" stroke="none" /><text fill="#e1ed5e" style="font-size:6.75px; font-family:Arial;" text-anchor="middle"><textPath startOffset="21.40746469413373" xlink:href="#id16">April</textPath></text><line stroke="#e1ed5e" stroke-width="0.3" x1="174.33088141563837" x2="178.70328620479359" y1="141.23008692659167" y2="143.65538615756765" /><path d="M 175.20536237346943 141.71514677278685 a86.0,86.0 0 0,1 -30.301960400862466,31.631185727798858" fill="none" id="id17" stroke="none" /><text fill="#e1ed5e" style="font-size:6.75px; font-family:Arial;" text-anchor="middle"><textPath startOffset="22.145653131862474" xlink:href="#id17">May</textPath></text><line stroke="#e1ed5e" stroke-width="0.3" x1="143.1302829299769" x2="145.66735839644613" y1="173.24464959558577" y2="177.55315839532614" /><path d="M 143.63769802327073 174.10635135553383 a86.0,86.0 0 0,1 -40.68552437913181,11.842963189579606" fill="none" id="id18" stroke="none" /><text fill="#e1ed5e" style="font-size:6.75px; font-family:Arial;" text-anchor="middle"><textPath startOffset="21.407464694133747" xlink:href="#id18">June</textPath></text><line stroke="#e1ed5e" stroke-width="0.3" x1="101.45913802915013" x2="101.54496967792366" y1="184.9874750549273" y2="189.98673829345242" /><path d="M 101.47630435890484 185.9873277026323 a86.0,86.0 0 0,1 -42.54439059252881,-10.42667462771756" fill="none" id="id19" stroke="none" /><text fill="#e1ed5e" style="font-size:6.75px; font-family:Arial;" text-anchor="middle"><textPath startOffset="22.145653131862474" xlink:href="#id19">July</textPath></text><line stroke="#e1ed5e" stroke-width="0.3" x1="58.13341422392154" x2="55.67067388415222" y1="173.97424548756322" y2="178.32567169271397" /><path d="M 57.64086615596768 174.84453072859336 a86.0,86.0 0 0,1 -31.369924170532247,-30.572349798747897" fill="none" id="id20" stroke="none" /><text fill="#e1ed5e" style="font-size:6.75px; font-family:Arial;" text-anchor="middle"><textPath startOffset="22.145653131862474" xlink:href="#id20">August</textPath></text><line stroke="#e1ed5e" stroke-width="0.3" x1="26.387840678322732" x2="22.057713659400548" y1="142.50000000000003" y2="145.00000000000006" /><path d="M 25.521815274538298 143.00000000000003 a86.0,86.0 0 0,1 -11.493303480769221,-40.785679425670985" fill="none" id="id21" stroke="none" /><text fill="#e1ed5e" style="font-size:6.75px; font-family:Arial;" text-anchor="middle"><textPath startOffset="21.40746469413373" xlink:href="#id21">September</textPath></text><line stroke="#e1ed5e" stroke-width="0.3" x1="15.003131293944662" x2="10.003315487706104" y1="100.72959589197737" y2="100.7725132973878" /><path d="M 14.003168132696942 100.73817937305945 a86.0,86.0 0 0,1 10.791469493833604,-42.45332614584628" fill="none" id="id22" stroke="none" /><text fill="#e1ed5e" style="font-size:6.75px; font-family:Arial;" text-anchor="middle"><textPath startOffset="22.145653131862435" xlink:href="#id22">October</textPath></text><line stroke="#e1ed5e" stroke-width="0.3" x1="26.387840678322718" x2="22.05771365940052" y1="57.49999999999999" y2="54.99999999999999" /><path d="M 25.521815274538284 56.99999999999999 a86.0,86.0 0 0,1 29.574782752854787,-30.34633250058573" fill="none" id="id23" stroke="none" /><text fill="#e1ed5e" style="font-size:6.75px; font-family:Arial;" text-anchor="middle"><textPath startOffset="21.40746469413373" xlink:href="#id23">November</textPath></text><path d="M 82.18462484594161 88.88188828441811 l -36.80067573154111 -22.96634342269077 a64.37905790248344,64.37905790248344 0 0,0 0.5931527968534757,-0.9325347167145449 l 36.401005243061746 23.594691814083983" fill="#ff0000" stroke="none" /><path d="M 82.37810715431573 88.57770195909679 l -41.261190035372124 -26.74500487737277 a70.17093744302406,70.17093744302406 0 0,0 0.6638690651405347,-1.0051823780320301 l 40.79599653131086 27.449367133743863" fill="#fff617" stroke="none" /><path d="M 82.576782715395 88.27688183743585 l -40.540663459740806 -27.277567648038602 a69.86318747840019,69.86318747840019 0 0,0 0.6780397441378023,-0.9892802501603003 l 40.06643397878769 27.969482633268935" fill="#ffea16" stroke="none" /><path d="M 83.2033758604659 87.39550010848427 l -39.158606411620674 -29.385348279923505 a69.95809585382813,69.95809585382813 0 0,0 0.7290567116984836,-0.9543586386481601 l 38.648397722567886 30.05322783181255" fill="#ffed16" stroke="none" /><path d="M 83.42222388311158 87.10902102172516 l -35.61740848249765 -27.696312265959417 a66.11857156584891,66.11857156584891 0 0,0 0.7044259055861298,-0.8900191199292963 l 35.13671614626996 28.303651329803394" fill="#ff4e07" stroke="none" /><path d="M 83.64595745247003 86.82634096563983 l -38.56297584713634 -31.06360361262289 a70.51818429212625,70.51818429212625 0 0,0 0.7674835867372353,-0.9362051847338085 l 38.024045441160474 31.721011079055195" fill="#fbff18" stroke="none" /><path d="M 84.34580500576568 86.00192230759919 l -36.36076280152663 -32.51401830871489 a69.77772501960634,69.77772501960634 0 0,0 0.8061065009419314,-0.8860522536094908 l 35.79725859974283 33.13340813788204" fill="#ffe615" stroke="none" /><path d="M 84.83555147118756 85.47280134310135 l -35.349409155781885 -33.86393433525344 a69.95249509805637,69.95249509805637 0 0,0 0.8381414790049893,-0.860006993693404 l 34.762880875626095 34.46576402101458" fill="#ffed16" stroke="none" /><path d="M 85.60350026404147 84.71141617570332 l -35.35169621486355 -37.542276304986 a72.56709159365022,72.56709159365022 0 0,0 0.9142424770482542,-0.8462091879081968 l 34.70202396650134 38.143603239026554" fill="#afff20" stroke="none" /><path d="M 85.86807049272753 84.46653392183569 l -33.512268768521416 -36.83585386201259 a70.79911934720496,70.79911934720496 0 0,0 0.9060094970808859,-0.8101592790215212 l 32.87499424461714 37.40570867091751" fill="#f0ff19" stroke="none" /><line stroke="#e1ed5e" stroke-width="0.3" x1="56.869717070023135" x2="54.33264160355391" y1="26.7553504044142" y2="22.446841604673864" /><path d="M 56.362301976729285 25.89364864446614 a86.0,86.0 0 0,1 42.16139366436587,-11.88097634709845" fill="none" id="id24" stroke="none" /><text fill="#e1ed5e" style="font-size:6.75px; font-family:Arial;" text-anchor="middle"><textPath startOffset="22.145653131862474" xlink:href="#id24">December</textPath></text></svg>