<?xml version="1.0" encoding="utf-8" ?>
<svg baseProfile="full" height="200mm" version="1.1" viewBox="0,0,200,200" width="200mm" xmlns="http://www.w3.org/2000/svg" xmlns:ev="http://www.w3.org/2001/xml-events" xmlns:xlink="http://www.w3.org/1999/xlink"><defs /><rect fill="#1a1a1a" height="200" width="200" x="0" y="0" /><text alignment-baseline="middle" fill="#e1ed5e" style="dominant-baseline: central; font-size:9.0px; font-family:Arial;" text-anchor="middle" x="100.0" y="100.0">2023</text><line stroke="#e1ed5e" stroke-width="0.3" x1="100.0" x2="100.0" y1="15.0" y2="10.0" /><path d="M 100.0 14.0 a86.0,86.0 0 0,1 42.46469731375804,11.215312516191453" fill="none" id="id49" stroke="none" /><text fill="#e1ed5e" style="font-size:6.75px; font-family:Arial;" text-anchor="middle"><textPath startOffset="22.20632615414155" xlink:href="#id49">January</textPath></text><line stroke="#e1ed5e" stroke-width="0.3" x1="143.23703022742887" x2="145.7803849466894" y1="26.81831364943548" y2="22.513508569990506" /><path d="M 143.74570117128098 25.957352633546492 a86.0,86.0 0 0,1 28.547481713284135,27.462654790039103" fill="none" id="id50" stroke="none" /><text fill="#e1ed5e" style="font-size:6.75px; font-family:Arial;" text-anchor="middle"><textPath startOffset="19.985693538727396" xlink:href="#id50">February</textPath></text><line stroke="#e1ed5e" stroke-width="0.3" x1="172.23445277983987" x2="176.4835382374775" y1="55.19839476539836" y2="52.563006222186495" /><path d="M 173.08426987136738 54.67131705675599 a86.0,86.0 0 0,1 12.851231095245387,41.99856678651699" fill="none" id="id51" stroke="none" /><text fill="#e1ed5e" style="font-size:6.75px; font-family:Arial;" text-anchor="middle"><textPath startOffset="22.20632615414155" xlink:href="#id51">March</textPath></text><line stroke="#e1ed5e" stroke-width="0.3" x1="184.98032266829074" x2="189.97916517819016" y1="98.17113171792111" y2="98.06355123074" /><path d="M 185.9800911702706 98.14961562048488 a86.0,86.0 0 0,1 -9.607161424134198,41.387399972396054" fill="none" id="id52" stroke="none" /><text fill="#e1ed5e" style="font-size:6.75px; font-family:Arial;" text-anchor="middle"><textPath startOffset="21.466115282336823" xlink:href="#id52">April</textPath></text><line stroke="#e1ed5e" stroke-width="0.3" x1="174.80103733775053" x2="179.2010983576182" y1="140.37084112569926" y2="142.7455964860345" /><path d="M 175.68104954172406 140.8457921977663 a86.0,86.0 0 0,1 -30.038265399797805,32.042727171017184" fill="none" id="id53" stroke="none" /><text fill="#e1ed5e" style="font-size:6.75px; font-family:Arial;" text-anchor="middle"><textPath startOffset="22.206326154141568" xlink:href="#id53">May</textPath></text><path d="M 115.32070863581623 114.36230785411682 l 13.339185996345433 12.50474115505104 a39.28393924732647,39.28393924732647 0 0,0 -0.4667183561064156,0.4893523304621784 l -13.121961088860054 -12.732500602095724" fill="#ff1e03" stroke="none" /><path d="M 114.81725581225074 114.88116024355365 l 12.390399284324566 12.443837075364533 a38.56049758928282,38.56049758928282 0 0,0 -0.4743860185049661,0.4642865641287891 l -12.174363313443806 -12.655273742415895" fill="#ff1001" stroke="none" /><path d="M 113.75828350139079 115.86535959552629 l 13.552502020439132 15.628062755911955 a41.68590477877942,41.68590477877942 0 0,0 -0.546153883084003,0.46544418771964186 l -13.281482660778082 -15.859031333854544" fill="#ff4b07" stroke="none" /><path d="M 113.48314897796784 116.09983520530334 l 12.231752292763026 14.605578897583085 a40.05095008352701,40.05095008352701 0 0,0 -0.5323531689751375,0.4380904156473169 l -11.978528995243197 -14.81396443208758" fill="#ff2c04" stroke="none" /><path d="M 113.20401910651253 116.32954008644616 l 12.287615617465516 15.196214892879034 a40.542529125810226,40.542529125810226 0 0,0 -0.5464409093023403,0.43412570670733935 l -12.024217215445823 -15.4054745135915" fill="#ff3605" stroke="none" /><line stroke="#e1ed5e" stroke-width="0.3" x1="143.8653032363475" x2="146.44561519142675" y1="172.8068346515853" y2="177.08958963109032" /><path d="M 144.38136562736335 173.6633856474863 a86.0,86.0 0 0,1 -40.68145358897372,12.25698825130547" fill="none" id="id54" stroke="none" /><text fill="#e1ed5e" style="font-size:6.75px; font-family:Arial;" text-anchor="middle"><textPath startOffset="21.466115282336833" xlink:href="#id54">June</textPath></text><path d="M 104.13013068566511 120.58985236759428 l 5.321881076539008 26.531060158496146 a48.05955600756534,48.05955600756534 0 0,0 -0.8125094672376523,0.15571937318492646 l -4.864403994729652 -26.61873673002954" fill="#ffbe11" stroke="none" /><path d="M 102.34483914955558 120.86867818915974 l 2.0243912425573276 18.0167451476955 a39.13012039728231,39.13012039728231 0 0,0 -0.6699959897981402,0.06944782379090103 l -1.7139626561535846 -18.04892233994216" fill="#ff1b02" stroke="none" /><path d="M 101.98527174616119 120.90594882070398 l 3.561310456325191 37.50245994208963 a58.671175106098936,58.671175106098936 0 0,0 -1.0062265285353589,0.0868214588624521 l -2.9152396100482907 -37.55820565323074" fill="#97ff23" stroke="none" /><path d="M 101.62511606390274 120.93702456842531 l 2.4635838733420146 31.73934294801566 a52.834810134077166,52.834810134077166 0 0,0 -0.907342860072523,0.06257567596201204 l -1.9168782524905612 -31.77704696849396" fill="#f1ff19" stroke="none" /><path d="M 101.26447882468166 120.96189622390904 l 1.3199917609003826 21.882161858562295 a42.92193846020838,42.92193846020838 0 0,0 -0.7378729481408375,0.038139603133731756 l -0.9431307443460655 -21.90164126845823" fill="#ff6209" stroke="none" /><path d="M 100.90346689309514 120.98055641714683 l 1.445397105793957 33.56540871066248 a54.59651521671934,54.59651521671934 0 0,0 -0.9392671341564695,0.03235025924164175 l -0.8674096199628353 -33.58531576833021" fill="#d5ff1c" stroke="none" /><line stroke="#e1ed5e" stroke-width="0.3" x1="102.19456741930631" x2="102.32365962044197" y1="184.97166512339345" y2="189.96999836594603" /><path d="M 102.22038585953345 185.97133177190398 a86.0,86.0 0 0,1 -42.740103519485714,-10.115201625700543" fill="none" id="id55" stroke="none" /><text fill="#e1ed5e" style="font-size:6.75px; font-family:Arial;" text-anchor="middle"><textPath startOffset="22.20632615414155" xlink:href="#id55">July</textPath></text><path d="M 100.18074693466247 120.99922214144158 l 0.3512011887803395 40.802638193057724 a61.804149614819494,61.804149614819494 0 0,0 -1.063896246885562,0.0 l 0.3512011887803114 -40.802638193057724" fill="#6aff28" stroke="none" /><path d="M 99.81925306533755 120.99922214144158 l -0.3844533420386622 44.66588131946214 a65.66753584446406,65.66753584446406 0 0,0 -1.1302330723622587,-0.01945798732446548 l 1.1532461042935886 -44.65264585485851" fill="#36ff2e" stroke="none" /><path d="M 99.45781275523022 120.99299961872073 l -1.3961227988952492 54.05661174736819 a75.0746376083585,75.0746376083585 0 0,0 -1.2915685082524466,-0.04448423089756025 l 2.3264116588223387 -54.02457071804454" fill="#3effb7" stroke="none" /><path d="M 99.09653310690486 120.98055641714683 l -2.7104006792854114 62.94166925144049 a84.0,84.0 0 0,0 -1.4440477263460443,-0.07464077295119242 l 3.793436474044945 -62.885688671727095" fill="#4dd2ff" stroke="none" /><path d="M 98.73552117531835 120.96189622390904 l -2.7126783411251005 44.96942199868484 a66.05116578600612,66.05116578600612 0 0,0 -1.134310003638021,-0.07822865903463225 l 3.4863511055420515 -44.916064995133915" fill="#31ff2f" stroke="none" /><path d="M 98.37488393609728 120.93702456842531 l -3.0643020010868627 39.478636453667505 a60.59738227452302,60.59738227452302 0 0,0 -1.039261502674164,-0.08967185543507004 l 3.7434078215025686 -39.42004034595377" fill="#7bff26" stroke="none" /><path d="M 97.65516085044442 120.86867818915974 l -3.171222976845197 28.223356720393603 a49.40095983827761,49.40095983827761 0 0,0 -0.8442214171855955,-0.10222345667774486 l 3.656571817082182 -28.16458773499051" fill="#ffd413" stroke="none" /><line stroke="#e1ed5e" stroke-width="0.3" x1="58.666819895761336" x2="56.23545636021788" y1="174.27360380694188" y2="178.64263932499728" /><path d="M 58.180547188652646 175.14741091055294 a86.0,86.0 0 0,1 -31.652253787137756,-30.449443065178592" fill="none" id="id56" stroke="none" /><text fill="#e1ed5e" style="font-size:6.75px; font-family:Arial;" text-anchor="middle"><textPath startOffset="22.20632615414155" xlink:href="#id56">August</textPath></text><path d="M 82.85270091963577 112.12312394758628 l -13.678528029564758 9.670706152949679 a37.75185621214221,37.75185621214221 0 0,0 -0.3705777805960265,-0.5338449319454828 l 13.842966717322918 -9.433819958817184" fill="#ff0000" stroke="none" /><line stroke="#e1ed5e" stroke-width="0.3" x1="26.63291911575756" x2="22.317208475507996" y1="142.92168965132927" y2="145.44649492493687" /><path d="M 25.769776987707644 143.4266507060508 a86.0,86.0 0 0,1 -11.730757126820373,-40.83630448921669" fill="none" id="id57" stroke="none" /><text fill="#e1ed5e" style="font-size:6.75px; font-family:Arial;" text-anchor="middle"><textPath startOffset="21.46611528233685" xlink:href="#id57">September</textPath></text><line stroke="#e1ed5e" stroke-width="0.3" x1="15.007084014347285" x2="10.007500721073583" y1="101.09737516637583" y2="101.16192664675087" /><path d="M 14.007167355692545 101.11028546245083 a86.0,86.0 0 0,1 10.666146001902534,-42.60595125391555" fill="none" id="id58" stroke="none" /><text fill="#e1ed5e" style="font-size:6.75px; font-family:Arial;" text-anchor="middle"><textPath startOffset="22.20632615414155" xlink:href="#id58">October</textPath></text><line stroke="#e1ed5e" stroke-width="0.3" x1="26.266209847984243" x2="21.928928074336255" y1="57.711370442889674" y2="55.22380399835377" /><path d="M 25.398753493254645 57.213857153982495 a86.0,86.0 0 0,1 29.58750427330803,-30.492523968695096" fill="none" id="id59" stroke="none" /><text fill="#e1ed5e" style="font-size:6.75px; font-family:Arial;" text-anchor="middle"><textPath startOffset="21.46611528233685" xlink:href="#id59">November</textPath></text><line stroke="#e1ed5e" stroke-width="0.3" x1="56.762969772571076" x2="54.21961505331055" y1="26.818313649435495" y2="22.513508569990535" /><path d="M 56.25429882871897 25.957352633546506 a86.0,86.0 0 0,1 42.265352541879196,-11.944610805530505" fill="none" id="id60" stroke="none" /><text fill="#e1ed5e" style="font-size:6.75px; font-family:Arial;" text-anchor="middle"><textPath startOffset="22.20632615414155" xlink:href="#id60">December</textPath></text></svg>