<?xml version="1.0" encoding="utf-8" ?>
<svg baseProfile="full" height="200mm" version="1.1" viewBox="0,0,200,200" width="200mm" xmlns="http://www.w3.org/2000/svg" xmlns:ev="http://www.w3.org/2001/xml-events" xmlns:xlink="http://www.w3.org/1999/xlink"><defs /><rect fill="#1a1a1a" height="200" width="200" x="0" y="0" /><text alignment-baseline="middle" fill="#e1ed5e" style="dominant-baseline: central; font-size:9.0px; font-family:Arial;" text-anchor="middle" x="100.0" y="100.0">2019</text><line stroke="#e1ed5e" stroke-width="0.3" x1="100.0" x2="100.0" y1="15.0" y2="10.0" /><path d="M 100.0 14.0 a86.0,86.0 0 0,1 42.46469731375804,11.215312516191453" fill="none" id="id1" stroke="none" /><text fill="#e1ed5e" style="font-size:6.75px; font-family:Arial;" text-anchor="middle"><textPath startOffset="22.20632615414155" xlink:href="#id1">January</textPath></text><line stroke="#e1ed5e" stroke-width="0.3" x1="143.23703022742887" x2="145.7803849466894" y1="26.81831364943548" y2="22.513508569990506" /><path d="M 143.74570117128098 25.957352633546492 a86.0,86.0 0 0,1 28.547481713284135,27.462654790039103" fill="none" id="id2" stroke="none" /><text fill="#e1ed5e" style="font-size:6.75px; font-family:Arial;" text-anchor="middle"><textPath startOffset="19.985693538727396" xlink:href="#id2">February</textPath></text><line stroke="#e1ed5e" stroke-width="0.3" x1="172.23445277983987" x2="176.4835382374775" y1="55.19839476539836" y2="52.563006222186495" /><path d="M 173.08426987136738 54.67131705675599 a86.0,86.0 0 0,1 12.851231095245387,41.99856678651699" fill="none" id="id3" stroke="none" /><text fill="#e1ed5e" style="font-size:6.75px; font-family:Arial;" text-anchor="middle"><textPath startOffset="22.20632615414155" xlink:href="#id3">March</textPath></text><line stroke="#e1ed5e" stroke-width="0.3" x1="184.98032266829074" x2="189.97916517819016" y1="98.17113171792111" y2="98.06355123074" /><path d="M 185.9800911702706 98.14961562048488 a86.0,86.0 0 0,1 -9.607161424134198,41.387399972396054" fill="none" id="id4" stroke="none" /><text fill="#e1ed5e" style="font-size:6.75px; font-family:Arial;" text-anchor="middle"><textPath startOffset="21.466115282336823" xlink:href="#id4">April</textPath></text><line stroke="#e1ed5e" stroke-width="0.3" x1="174.80103733775053" x2="179.2010983576182" y1="140.37084112569926" y2="142.7455964860345" /><path d="M 175.68104954172406 140.8457921977663 a86.0,86.0 0 0,1 -30.038265399797805,32.042727171017184" fill="none" id="id5" stroke="none" /><text fill="#e1ed5e" style="font-size:6.75px; font-family:Arial;" text-anchor="middle"><textPath startOffset="22.206326154141568" xlink:href="#id5">May</textPath></text><line stroke="#e1ed5e" stroke-width="0.3" x1="143.8653032363475" x2="146.44561519142675" y1="172.8068346515853" y2="177.08958963109032" /><path d="M 144.38136562736335 173.6633856474863 a86.0,86.0 0 0,1 -40.68145358897372,12.25698825130547" fill="none" id="id6" stroke="none" /><text fill="#e1ed5e" style="font-size:6.75px; font-family:Arial;" text-anchor="middle"><textPath startOffset="21.466115282336833" xlink:href="#id6">June</textPath></text><path d="M 107.93186726928326 119.44442032107085 l 3.144669501450355 7.708938321982069 a29.32566371681416,29.32566371681416 0 0,0 -0.4690415415981726,0.18664130931612677 l -3.0115068838103163 -7.761926475704265" fill="#ff0000" stroke="none" /><path d="M 107.59598834532513 119.57807347666477 l 4.985567571784192 12.84991548247172 a34.783185840707965,34.783185840707965 0 0,0 -0.5600586166463295,0.2117662465047987 l -4.763638734377588 -12.93382997908315" fill="#ff5808" stroke="none" /><path d="M 107.2578585660854 119.70592522655815 l 4.58165702991822 12.439728609095704 a34.256637168141594,34.256637168141594 0 0,0 -0.5550887403296657,0.19903507317080252 l -4.36684872895882 -12.516751223306468" fill="#ff5007" stroke="none" /><path d="M 106.91757812671514 119.82793768551818 l 4.58110999837035 13.13089088613225 a34.9070796460177,34.9070796460177 0 0,0 -0.5690357094096536,0.1930478079141819 l -4.354404556023469 -13.207801680944556" fill="#ff5a08" stroke="none" /><path d="M 106.57524785965236 119.94407469862006 l 7.818532189456839 23.71521094694321 a45.97079646017699,45.97079646017699 0 0,0 -0.7536554271622806,0.2412966681233975 l -7.4091554172036185 -23.846280461726312" fill="#fffd17" stroke="none" /><path d="M 106.2309692047433 120.05430185196036 l 3.7091728186348054 11.937929539013568 a33.50088495575221,33.50088495575221 0 0,0 -0.5521664124563865,0.1663632105829605 l -3.503131431738173 -12.000008118702254" fill="#ff4406" stroke="none" /><path d="M 105.88484417918355 120.15858648285463 l 3.6732537708414132 12.582763716141708 a34.10796460176991,34.10796460176991 0 0,0 -0.5650046573498645,0.15967595984605137 l -3.4561179453869433 -12.644128469326278" fill="#ff4d07" stroke="none" /><path d="M 105.18746579009965 120.34920634021253 l 3.865350615277795 15.16285994553889 a36.64778761061947,36.64778761061947 0 0,0 -0.6126231172445908,0.15056785717233004 l -3.6037742132899933 -15.22714906102525" fill="#ff750a" stroke="none" /><path d="M 104.83641907484287 120.43548508189849 l 3.663694449615481 15.480332062039924 a36.90796460176991,36.90796460176991 0 0,0 -0.6194911356688283,0.14099416558824668 l -3.3966831645537905 -15.541102961205855" fill="#ff790b" stroke="none" /><path d="M 104.48393922423573 120.51570834832081 l 3.3437753270996815 15.299029706358413 a36.66017699115044,36.66017699115044 0 0,0 -0.6176516021418704,0.12943489854287 l -3.079932263528433 -15.354320585627823" fill="#ff750a" stroke="none" /><path d="M 104.13013068566511 120.58985236759428 l 3.0689673148054286 15.299657260758107 a36.604424778761064,36.604424778761064 0 0,0 -0.6188455355444835,0.11860321975188845 l -2.805154164689241 -15.350217678858463" fill="#ff740a" stroke="none" /><path d="M 103.7750983002368 120.6578951692458 l 2.817403746194433 15.417249197106747 a36.67256637168141,36.67256637168141 0 0,0 -0.6219510586682785,0.10813416376272666 l -2.5516037160541045 -15.46346193939048" fill="#ff750a" stroke="none" /><path d="M 103.41894727170886 120.7198165907248 l 2.6141331351827035 15.842408437509933 a37.05663716814159,37.05663716814159 0 0,0 -0.6302524672253246,0.09843247358395672 l -2.341044804348862 -15.885059218440995" fill="#ff7b0b" stroke="none" /><path d="M 102.70371172650421 120.8252237178851 l 2.4110090115699765 18.570693598574227 a39.72654867256637,39.72654867256637 0 0,0 -0.6788937569237458,0.08220457943490399 l -2.0909878315948505 -18.60944370673448" fill="#ffa30f" stroke="none" /><path d="M 102.34483914955558 120.86867818915974 l 1.986542193959778 17.67989491423798 a38.79115044247787,38.79115044247787 0 0,0 -0.6641920590134855,0.06884622263423033 l -1.6819175383406897 -17.71147050532797" fill="#ff950d" stroke="none" /><path d="M 101.98527174616119 120.90594882070398 l 2.4379605543566485 25.672998507548872 a46.78849557522124,46.78849557522124 0 0,0 -0.802435359320984,0.0692374992741166 l -1.9956808772941226 -25.711160259101653" fill="#f6ff19" stroke="none" /><path d="M 101.62511606390274 120.93702456842531 l 1.2104478057092627 15.594686441083757 a36.641592920353986,36.641592920353986 0 0,0 -0.6292534719742263,0.043397003594741385 l -0.941831572956106 -15.613211789194784" fill="#ff750a" stroke="none" /><path d="M 101.26447882468166 120.96189622390904 l 0.9586166900978975 15.891467048804188 a36.92035398230088,36.92035398230088 0 0,0 -0.634699443143263,0.03280671141512587 l -0.684929178541155 -15.905613566981517" fill="#ff790b" stroke="none" /><path d="M 100.90346689309514 120.98055641714683 l 0.6961225736768472 16.165549664185107 a37.180530973451326,37.180530973451326 0 0,0 -0.6396461502208663,0.022030706739405635 l -0.4177560717813285 -16.175137169350606" fill="#ff7d0b" stroke="none" /><line stroke="#e1ed5e" stroke-width="0.3" x1="102.19456741930631" x2="102.32365962044197" y1="184.97166512339345" y2="189.96999836594603" /><path d="M 102.22038585953345 185.97133177190398 a86.0,86.0 0 0,1 -42.740103519485714,-10.115201625700543" fill="none" id="id7" stroke="none" /><text fill="#e1ed5e" style="font-size:6.75px; font-family:Arial;" text-anchor="middle"><textPath startOffset="22.20632615414155" xlink:href="#id7">July</textPath></text><path d="M 100.18074693466247 120.99922214144158 l 0.1478499262002976 17.177239822483035 a38.17787610619469,38.17787610619469 0 0,0 -0.6571937217254943,0.0 l 0.14784992620028578 -17.177239822483035" fill="#ff8c0c" stroke="none" /><path d="M 99.81925306533755 120.99922214144158 l -0.13366742336246537 15.52951324737287 a36.53008849557522,36.53008849557522 0 0,0 -0.6287355482899519,-0.010824252650382149 l 0.40096266154508525 -15.524911517443329" fill="#ff730a" stroke="none" /><path d="M 99.45781275523022 120.99299961872073 l -0.4020822222275008 15.56825989423715 a36.57345132743363,36.57345132743363 0 0,0 -0.6292020777914182,-0.021670991767652595 l 0.670004651693562 -15.559032104043403" fill="#ff740a" stroke="none" /><path d="M 99.09653310690486 120.98055641714683 l -1.3402758127951164 31.124253162782125 a52.15309734513274,52.15309734513274 0 0,0 -0.896566210037415,-0.04634223211475583 l 1.8758300912460204 -31.096571123905168" fill="#afff20" stroke="none" /><path d="M 98.73552117531835 120.96189622390904 l -2.0026509763173364 33.198944196509615 a54.25929203539823,54.25929203539823 0 0,0 -0.9318057753207527,-0.06426278182355702 l 2.573819512417019 -33.15955307016977" fill="#95ff23" stroke="none" /><path d="M 98.37488393609728 120.93702456842531 l -2.4175399145313885 31.146140088073412 a52.239823008849555,52.239823008849555 0 0,0 -0.8959270998482534,-0.07730436003953729 l 2.9533113321211837 -31.09991147575521" fill="#aeff20" stroke="none" /><path d="M 97.65516085044442 120.86867818915974 l -2.0792290511988445 18.504792518175275 a39.6212389380531,39.6212389380531 0 0,0 -0.6770941009331309,-0.0819866661571299 l 2.3974505751833646 -18.466260323292797" fill="#ffa20e" stroke="none" /><path d="M 97.2962882734958 120.8252237178851 l -2.0138265809507643 15.51141294621235 a36.641592920353986,36.641592920353986 0 0,0 -0.624776514197609,-0.08658833189122184 l 2.2805316863352045 -15.474450048828523" fill="#ff750a" stroke="none" /><path d="M 96.93821686468263 120.77559828337769 l -3.3787996192396026 22.926700052541577 a44.17433628318584,44.17433628318584 0 0,0 -0.7513089842500484,-0.11733901189020317 l 3.772944467098168 -22.865142733304268" fill="#ffe415" stroke="none" /><path d="M 96.58105272829116 120.7198165907248 l -2.5606805672179234 15.51847030202073 a36.7283185840708,36.7283185840708 0 0,0 -0.6228965923723351,-0.1082985569170957 l 2.8274261310623086 -15.472093166582628" fill="#ff760a" stroke="none" /><path d="M 96.22490169976321 120.6578951692458 l -2.7929045831840367 15.283186160610173 a36.53628318584071,36.53628318584071 0 0,0 -0.6176935130549094,-0.11838243189992183 l 3.055565710810641 -15.232846530361783" fill="#ff730a" stroke="none" /><path d="M 95.86986931433489 120.58985236759428 l -3.2565897707323934 16.235007486306635 a37.55840707964602,37.55840707964602 0 0,0 -0.6327850057090348,-0.13260625039969934 l 3.535566237870815 -16.176545255180393" fill="#ff830c" stroke="none" /><path d="M 95.16358092515715 120.4354850818985 l -14.27813631298739 60.32989224178177 a82.99646017699115,82.99646017699115 0 0,0 -1.3874111772892228,-0.34099191183145333 l 15.314500775019823 -60.07517907163629" fill="#4cdcff" stroke="none" /><path d="M 94.46302465271185 120.25689768951611 l -4.163348129863569 15.231513926423771 a36.790265486725666,36.790265486725666 0 0,0 -0.6094374609518284,-0.17223311397124533 l 4.424916758920012 -15.157592019114004" fill="#ff770b" stroke="none" /><path d="M 94.11515582081647 120.15858648285463 l -4.6766283831033775 16.01983244389687 a37.68849557522124,37.68849557522124 0 0,0 -0.6211872140134349,-0.18715861190583055 l 4.951690571557059 -15.936958462885313" fill="#ff850c" stroke="none" /><path d="M 93.76903079525671 120.05430185196036 l -4.628194825234103 14.895791169096222 a36.598230088495576,36.598230088495576 0 0,0 -0.5999994965199776,-0.1921008914260925 l 4.883915666845021 -14.813917431010422" fill="#ff740a" stroke="none" /><path d="M 93.42475214034765 119.94407469862007 l -13.602422784584643 41.25893683227803 a64.44336283185841,64.44336283185841 0 0,0 -1.0505196956501592,-0.35639331778726435 l 14.310612213172028 -41.01868052759265" fill="#31ff44" stroke="none" /><path d="M 93.08242187328487 119.8279376855182 l -5.203487971422881 14.914820382911909 a36.79646017699115,36.79646017699115 0 0,0 -0.5962436017284435,-0.2137917422485695 l 5.459451133781051 -14.823041099623383" fill="#ff770b" stroke="none" /><path d="M 92.40401165467489 119.57807347666478 l -5.637612589037755 14.530511170291618 a36.5858407079646,36.5858407079646 0 0,0 -0.5851625147188159,-0.23284824098459314 l 5.886896179798429 -14.431316084900958" fill="#ff740a" stroke="none" /><path d="M 92.06813273071674 119.44442032107085 l -9.880907220703008 24.222356051882652 a47.16017699115044,47.16017699115044 0 0,0 -0.7490126191285604,-0.31308733554246143 l 10.29639129932903 -24.04868367332022" fill="#f1ff19" stroke="none" /><path d="M 91.7346041902142 119.30500536409082 l -11.005898727248695 25.705839001034207 a48.96283185840708,48.96283185840708 0 0,0 -0.7719324446917984,-0.3383924987494542 l 11.446751846598238 -25.512581948990302" fill="#d9ff1c" stroke="none" /><path d="M 91.40352486487194 119.15986991738527 l -6.392835933822365 14.248387038857896 a36.61681415929203,36.61681415929203 0 0,0 -0.5728473973506736,-0.2629661437331228 l 6.637151326940458 -14.136233824790699" fill="#ff740a" stroke="none" /><path d="M 91.07499286063937 119.00905698771935 l -6.621354854127433 14.102589476139874 a36.57964601769912,36.57964601769912 0 0,0 -0.5676592022001684,-0.2725109136489924 l 6.863126724327843 -13.986524285991319" fill="#ff740a" stroke="none" /><path d="M 90.42595943632237 118.69057910512821 l -28.29849157759583 55.24472054082144 a83.070796460177,83.070796460177 0 0,0 -1.2670634209792608,-0.6628676967408106 l 29.245245901101583 -54.749423425135916" fill="#4cdcff" stroke="none" /><path d="M 90.10565033884886 118.52300852407294 l -15.296839697372594 28.63689901907558 a53.46637168141593,53.46637168141593 0 0,0 -0.8080479382778063,-0.44061216361695016 l 15.787510447519042 -28.369346203698864" fill="#9fff22" stroke="none" /><line stroke="#e1ed5e" stroke-width="0.3" x1="58.666819895761336" x2="56.23545636021788" y1="174.27360380694188" y2="178.64263932499728" /><path d="M 58.180547188652646 175.14741091055294 a86.0,86.0 0 0,1 -31.652253787137756,-30.449443065178592" fill="none" id="id8" stroke="none" /><text fill="#e1ed5e" style="font-size:6.75px; font-family:Arial;" text-anchor="middle"><textPath startOffset="22.20632615414155" xlink:href="#id8">August</textPath></text><path d="M 89.4739219176387 118.17145234162733 l -9.634932238810347 16.633043249578055 a40.22212389380531,40.22212389380531 0 0,0 -0.5961151072013908,-0.3521953127128863 l 9.919815217040119 -16.46472936457142" fill="#ffab0f" stroke="none" /><path d="M 89.1626897886671 117.98757091392108 l -10.073263857200587 16.719420634149063 a40.51946902654868,40.51946902654868 0 0,0 -0.5943256794226457,-0.36508337418158665 l 10.359568736555541 -16.5435487931391" fill="#ffaf10" stroke="none" /><path d="M 88.54995079064634 117.60387380957326 l -19.68462737230478 30.26412287970294 a57.10265486725664,57.10265486725664 0 0,0 -0.8193559371725759,-0.5430244370443147 l 20.20265800821732 -29.920800421567307" fill="#72ff27" stroke="none" /><path d="M 88.24862548938628 117.40417183066458 l -10.47917555916969 15.520003375840421 a39.72654867256637,39.72654867256637 0 0,0 -0.5634418580865501,-0.38754044772908747 l 10.744774301879131 -15.337322138746233" fill="#ffa30f" stroke="none" /><path d="M 87.95078237400918 117.19931262002967 l -12.546825433553861 17.909608716432082 a42.86725663716814,42.86725663716814 0 0,0 -0.6006981980193813,-0.42858221476047276 l 12.85325095942213 -17.69098223982739" fill="#ffd113" stroke="none" /><path d="M 86.79598089348748 116.32954008644616 l -19.085455345696566 23.603170036456103 a51.35398230088495,51.35398230088495 0 0,0 -0.6825919275411592,-0.5617266857445344 l 19.488917401782412 -23.271148231854387" fill="#b9ff1f" stroke="none" /><path d="M 86.51685102203217 116.09983520530335 l -40.44944693390351 48.29950561591003 a84.0,84.0 0 0,0 -1.1005380936917737,-0.937902439108194 l 41.274850504172335 -47.596078786578886" fill="#4dd2ff" stroke="none" /><path d="M 85.97065885151581 115.62618273729859 l -20.977796543264414 23.365522211022572 a52.40088495575221,52.40088495575221 0 0,0 -0.665991419191704,-0.6083673709274791 l 21.376887511922973 -23.000962073508518" fill="#acff20" stroke="none" /><path d="M 85.70375840098266 115.38237550388516 l -21.275675182018425 22.892060300029684 a52.25221238938053,52.25221238938053 0 0,0 -0.6535611318328788,-0.6179828433770129 l 21.66657214824212 -22.522442819906743" fill="#aeff20" stroke="none" /><path d="M 85.18274418774928 114.88116024355367 l -22.291446797191355 22.387586207116126 a52.5929203539823,52.5929203539823 0 0,0 -0.6360221514095937,-0.644287081446654 l 22.673509573656485 -22.000558631688808" fill="#aaff21" stroke="none" /><path d="M 84.67929136418377 114.36230785411682 l -22.70989996901964 21.28926164216432 a52.1283185840708,52.1283185840708 0 0,0 -0.6080485182052923,-0.6599165754709998 l 23.072994895220663 -20.89519381189198" fill="#b0ff20" stroke="none" /><path d="M 84.19399662182784 113.82643327865904 l -23.48986578738389 20.54795600527558 a52.20884955752213,52.20884955752213 0 0,0 -0.5858764983296392,-0.6815067281022485 l 23.84008479528431 -20.1405721780118" fill="#aeff20" stroke="none" /><path d="M 83.95833913139862 113.55231037782056 l -23.702855248030783 20.024637959440472 a52.02920353982301,52.02920353982301 0 0,0 -0.5720833914142147,-0.6891112983780295 l 24.044034639338534 -19.613665403948684" fill="#b1ff20" stroke="none" /><path d="M 83.72743513129214 113.27417163493432 l -24.034434306082662 19.60583403425256 a52.01681415929204,52.01681415929204 0 0,0 -0.5600033311136675,-0.6986902600127888 l 24.36835554925119 -19.18921594066151" fill="#b1ff20" stroke="none" /><path d="M 83.28015986056508 112.70617746262583 l -27.624727026836286 20.99330382541809 a55.69646017699115,55.69646017699115 0 0,0 -0.5735110475352478,-0.768311770009384 l 27.98199934106662 -20.514679175899396" fill="#83ff25" stroke="none" /><path d="M 82.85270091963577 112.12312394758628 l -26.181244849547273 18.510114912302832 a53.06371681415929,53.06371681415929 0 0,0 -0.5208812593655343,-0.750368303276121 l 26.495987016074942 -18.0567053468397" fill="#a4ff21" stroke="none" /><path d="M 82.6465618267979 111.8261652097733 l -27.965142401239838 19.057917563714312 a54.84159292035398,54.84159292035398 0 0,0 -0.5249042795866679,-0.7846606780341793 l 28.289049786237236 -18.57371997147431" fill="#8eff24" stroke="none" /><path d="M 82.44556493220864 111.52570212397912 l -25.958815042725107 17.04375951253903 a52.053982300884954,52.053982300884954 0 0,0 -0.4853293607795532,-0.7532419456814365 l 26.248349266881707 -16.594395966936144" fill="#b0ff20" stroke="none" /><path d="M 82.05923443525364 110.91462005526583 l -26.63595076323553 16.204508182345993 a52.17787610619469,52.17787610619469 0 0,0 -0.4602066914435967,-0.7713328858989044 l 26.91093833037736 -15.743613202560978" fill="#afff20" stroke="none" /><line stroke="#e1ed5e" stroke-width="0.3" x1="26.63291911575756" x2="22.317208475507996" y1="142.92168965132927" y2="145.44649492493687" /><path d="M 25.769776987707644 143.4266507060508 a86.0,86.0 0 0,1 -11.730757126820373,-40.83630448921669" fill="none" id="id9" stroke="none" /><text fill="#e1ed5e" style="font-size:6.75px; font-family:Arial;" text-anchor="middle"><textPath startOffset="21.46611528233685" xlink:href="#id9">September</textPath></text><path d="M 81.69416730710424 110.29060199501025 l -27.06455264212198 15.214305958404529 a52.047787610619466,52.047787610619466 0 0,0 -0.43230295214995806,-0.7847554290328893 l 27.322432003723456 -14.746180010973818" fill="#b1ff20" stroke="none" /><path d="M 81.51974371655577 109.97397251340807 l -51.02513239322657 27.53875596622405 a78.98230088495575,78.98230088495575 0 0,0 -0.6354219823400302,-1.2019789255610298 l 51.49160688379148 -26.656362025576893" fill="#46fff7" stroke="none" /><path d="M 81.35079622478065 109.6543875284942 l -27.616225059469368 14.296467667563677 a52.097345132743364,52.097345132743364 0 0,0 -0.4054198781998516,-0.7999318818821296 l 27.858223607455486 -13.818981573978864" fill="#b0ff20" stroke="none" /><path d="M 81.18737489456691 109.33194174019688 l -48.152551044201445 23.885916955660278 a74.75132743362832,74.75132743362832 0 0,0 -0.5618692190059547,-1.1576170113176723 l 48.556573519822116 -23.05351098837732" fill="#40ffc6" stroke="none" /><path d="M 80.73074385275274 108.34839909993369 l -28.483257390517995 12.340362209371005 a52.04159292035398,52.04159292035398 0 0,0 -0.3490479666676791,-0.8250462860998818 l 28.691456338377982 -11.848241397604964" fill="#b1ff20" stroke="none" /><path d="M 80.32549172779594 107.34259656027581 l -29.018448779062034 10.829788436984972 a51.97345132743363,51.97345132743363 0 0,0 -0.30559334813161276,-0.840861646937663 l 29.20056638819887 -10.328678993041192" fill="#b1ff20" stroke="none" /><path d="M 80.0844068197444 106.66101706037122 l -40.07205341667359 13.402595094038976 a63.25398230088496,63.25398230088496 0 0,0 -0.3364742846233269,-1.0355613664680383 l 40.29681995231317 -12.710834827593134" fill="#30ff34" stroke="none" /><path d="M 79.97269907076064 106.31721596034903 l -30.070490185790064 9.485141368193673 a52.530973451327434,52.530973451327434 0 0,0 -0.26458907644484203,-0.8646924108432551 l 30.229306034741036 -8.96612198479837" fill="#aaff21" stroke="none" /><path d="M 79.86692584326677 105.97154293290107 l -35.12894797553894 10.419373583513234 a57.64159292035398,57.64159292035398 0 0,0 -0.27395501881262585,-0.9536733600087711 l 35.303095631237674 -9.813142747999866" fill="#6cff28" stroke="none" /><path d="M 79.50377843672027 104.57218783832718 l -30.484350773467963 6.8002864545267325 a52.23362831858407,52.23362831858407 0 0,0 -0.18820512845885412,-0.8792317034462852 l 30.59688994065126 -6.2745409316642835" fill="#aeff20" stroke="none" /><path d="M 79.4281124754447 104.21870165774334 l -30.948857337826546 6.346719308109451 a52.5929203539823,52.5929203539823 0 0,0 -0.1742329997158088,-0.8884103118563609 l 31.05352027051802 -5.813045269185135" fill="#aaff21" stroke="none" /><path d="M 79.35854240842038 103.8639653848113 l -30.59685085477511 5.727559309344177 a52.1283185840708,52.1283185840708 0 0,0 -0.15751082233502273,-0.8834043399941024 l 30.69090811944932 -5.200036218616861" fill="#b0ff20" stroke="none" /><path d="M 79.23777060512086 103.15116336523772 l -30.720750042688437 4.662606324493339 a52.07256637168142,52.07256637168142 0 0,0 -0.12687344163848635,-0.887352555319396 l 30.79645753534352 -4.133108297193543" fill="#b0ff20" stroke="none" /><path d="M 79.18660465613746 102.79330883721812 l -30.88241256036242 4.144644085901818 a52.15929203539823,52.15929203539823 0 0,0 -0.11176616287361027,-0.8908862858112152 l 30.94918023248288 -3.612440045803194" fill="#afff20" stroke="none" /><path d="M 79.10278846688536 102.07522291339032 l -30.994448256194826 3.0779412414532454 a52.14690265486726,52.14690265486726 0 0,0 -0.08101494057214745,-0.8939931183475428 l 31.042837793044047 -2.5439667345571366" fill="#afff20" stroke="none" /><path d="M 79.07016306316243 101.71520430193888 l -30.950227895093434 2.536377334991035 a52.053982300884954,52.053982300884954 0 0,0 -0.0654973975054838,-0.8936599510376756 l 30.989301851263253 -2.0032442474565983" fill="#b0ff20" stroke="none" /><path d="M 79.0095281055655 100.63252640178507 l -31.52285911934102 0.9499091184329852 a52.53716814159292,52.53716814159292 0 0,0 -0.019458609548215863,-0.9041651245675273 l 31.534539791574243 -0.40715417807532905" fill="#aaff21" stroke="none" /><line stroke="#e1ed5e" stroke-width="0.3" x1="15.007084014347285" x2="10.007500721073583" y1="101.09737516637583" y2="101.16192664675087" /><path d="M 14.007167355692545 101.11028546245083 a86.0,86.0 0 0,1 10.666146001902534,-42.60595125391555" fill="none" id="id10" stroke="none" /><text fill="#e1ed5e" style="font-size:6.75px; font-family:Arial;" text-anchor="middle"><textPath startOffset="22.20632615414155" xlink:href="#id10">October</textPath></text><path d="M 79.00175016825051 100.2711162175752 l -46.39436319758222 0.5990148877989029 a67.39823008849558,67.39823008849558 0 0,0 -0.004992933772922483,-1.1601819696590006 l 46.39780042864465 0.19967656006377307" fill="#36ff6b" stroke="none" /><path d="M 79.00019446554 99.90962569577889 l -31.016526935410383 -0.1334820475619909 a52.01681415929204,52.01681415929204 0 0,0 0.011560100068596613,-0.8953424899900345 l 31.00963382822407 0.6673607956124974" fill="#b1ff20" stroke="none" /><path d="M 79.05617556472873 98.46500227214037 l -35.75895452252215 -2.620816179602229 a56.85486725663717,56.85486725663717 0 0,0 0.07993663348219936,-0.9754294005507405 l 35.70854340522045 3.235959497360748" fill="#75ff27" stroke="none" /><path d="M 79.08570108090925 98.10471618934814 l -30.97043674744414 -2.8065854659210356 a52.097345132743364,52.097345132743364 0 0,0 0.08862223392697842,-0.8924138014087732 l 30.91753738783493 3.3392747980342388" fill="#b0ff20" stroke="none" /><path d="M 79.12142395522702 97.74499172005258 l -30.960649491762194 -3.343931157314367 a52.14070796460177,52.14070796460177 0 0,0 0.10405707928282955,-0.891497508707858 l 30.898502059475774 3.8763724043470864" fill="#afff20" stroke="none" /><path d="M 79.16333360222342 97.38593545837743 l -30.775571874238157 -3.8609501946619975 a52.01681415929204,52.01681415929204 0 0,0 0.1191036448116133,-0.8874604960716977 l 30.70455223036871 4.390129032798355" fill="#b1ff20" stroke="none" /><path d="M 79.21141760316559 97.0276538004421 l -30.74747850670435 -4.39626662082104 a52.06017699115044,52.06017699115044 0 0,0 0.134474180394131,-0.8860168316981883 l 30.667248432870917 4.924882564911321" fill="#b0ff20" stroke="none" /><path d="M 79.32604984820605 96.31383870115002 l -30.492551846303744 -5.436816074999975 a51.97345132743363,51.97345132743363 0 0,0 0.16461792814048998,-0.8793955545985296 l 30.394448194253393 5.960889707061077" fill="#b1ff20" stroke="none" /><path d="M 79.54389044137918 95.25157060432595 l -30.24366404360106 -7.020391779090953 a52.047787610619466,52.047787610619466 0 0,0 0.2100926289700986,-0.8709695821822265 l 30.11833861437015 7.539946592932576" fill="#b1ff20" stroke="none" /><path d="M 79.62865764111835 94.90015583598534 l -30.154394087571717 -7.548972865789241 a52.084955752212394,52.084955752212394 0 0,0 0.2252145255558867,-0.8678434377537325 l 30.019983230145524 8.066912729091838" fill="#b0ff20" stroke="none" /><path d="M 79.71946130924805 94.55025226153421 l -30.002035850773172 -8.062089943482574 a52.06637168141593,52.06637168141593 0 0,0 0.2400339803509551,-0.8635299394583444 l 29.858815099855857 8.577331186359862" fill="#b0ff20" stroke="none" /><path d="M 79.81627453868168 94.20196356495316 l -31.216304599909126 -8.967287619159473 a53.478761061946905,53.478761061946905 0 0,0 0.26177625080667666,-0.8825793817749638 l 31.057322451990743 9.503296387680976" fill="#9eff22" stroke="none" /><path d="M 80.14247586403 93.16781622104843 l -34.58958112769995 -11.900898293424488 a57.57964601769911,57.57964601769911 0 0,0 0.33052613978549267,-0.9344419063022567 l 34.37960190710465 12.494537826153357" fill="#6cff28" stroke="none" /><path d="M 80.38941819471856 92.48833698450439 l -58.07393237263137 -22.2447153429382 a83.18849557522124,83.18849557522124 0 0,0 0.5237169376515546,-1.3328024817860746 l 57.68242188509812 23.24106682962004" fill="#4cdaff" stroke="none" /><path d="M 80.52162464483688 92.15188598940014 l -28.72916719050609 -11.575389396164976 a51.97345132743363,51.97345132743363 0 0,0 0.34148614956483314,-0.8269357976096514 l 28.525659354055055 12.06819976422794" fill="#b1ff20" stroke="none" /><path d="M 80.65960295795068 91.81776055985345 l -29.31867268409779 -12.403695717673477 a52.83451327433629,52.83451327433629 0 0,0 0.3615623999267776,-0.8345358689737153 l 29.10081957432833 12.906530731233792" fill="#a7ff21" stroke="none" /><path d="M 80.803312248108 91.48605970444005 l -28.34767518760218 -12.572502985124801 a52.01061946902655,52.01061946902655 0 0,0 0.3700126686653981,-0.8152738683663636 l 28.127060201973432 13.058598862333236" fill="#b1ff20" stroke="none" /><path d="M 81.43458229118936 90.18545643968196 l -27.410004611385617 -14.490203693035932 a52.00442477876106,52.00442477876106 0 0,0 0.42517802568169,-0.7877903082371361 l 27.156518486485457 14.95987498460554" fill="#b1ff20" stroke="none" /><path d="M 81.6062741919709 89.86733742301443 l -28.702893665036573 -15.811735997714944 a53.769911504424776,53.769911504424776 0 0,0 0.4535680453043368,-0.8068469421138849 l 28.426467978439806 16.303466449763615" fill="#9bff22" stroke="none" /><line stroke="#e1ed5e" stroke-width="0.3" x1="26.266209847984243" x2="21.928928074336255" y1="57.711370442889674" y2="55.22380399835377" /><path d="M 25.398753493254645 57.213857153982495 a86.0,86.0 0 0,1 29.58750427330803,-30.492523968695096" fill="none" id="id11" stroke="none" /><text fill="#e1ed5e" style="font-size:6.75px; font-family:Arial;" text-anchor="middle"><textPath startOffset="21.46611528233685" xlink:href="#id11">November</textPath></text><path d="M 81.78341655067845 89.55222093294921 l -26.87349080532655 -15.412785579445714 a51.97964601769911,51.97964601769911 0 0,0 0.4518276907137177,-0.7723199855275792 l 26.60420344014251 15.873084977327185" fill="#b1ff20" stroke="none" /><path d="M 82.15384107792192 88.93136811851018 l -26.448112809593002 -16.40377775003093 a52.12212389380531,52.12212389380531 0 0,0 0.47945504577771975,-0.7583827410420622 l 26.16183016756932 16.85660813878721" fill="#b0ff20" stroke="none" /><path d="M 82.34701348167596 88.62581576622439 l -26.04206064251874 -16.779438157260113 a51.97964601769911,51.97964601769911 0 0,0 0.4910922220388469,-0.7479671460658985 l 25.749371785121973 17.22522336730368" fill="#b1ff20" stroke="none" /><path d="M 82.95767976084542 87.72973835380427 l -25.357363801267173 -18.25699107475259 a52.24601769911504,52.24601769911504 0 0,0 0.5317584442654915,-0.7253179203759773 l 25.03934274448805 18.69077143880007" fill="#aeff20" stroke="none" /><path d="M 83.17141714833178 87.43820079747576 l -25.088984581808603 -18.727826893674774 a52.30796460176991,52.30796460176991 0 0,0 0.5448100179196533,-0.716906121669797 l 24.762898623664842 19.156917791225595" fill="#adff20" stroke="none" /><path d="M 83.6137871275137 86.86637796730984 l -24.23129354860584 -19.421488864270138 a52.053982300884954,52.053982300884954 0 0,0 0.5664006404371899,-0.6943402132104086 l 23.89339441609226 19.83571324708863" fill="#b0ff20" stroke="none" /><path d="M 83.84228863543731 86.58626213691792 l -23.874329269939384 -19.819885827781157 a52.02920353982301,52.02920353982301 0 0,0 0.5779933797408978,-0.6841618531165355 l 23.52962527671136 20.22790663052681" fill="#b1ff20" stroke="none" /><path d="M 84.07557802195018 86.31012108654704 l -23.58129744242185 -20.272328066529166 a52.097345132743364,52.097345132743364 0 0,0 0.5904567632183881,-0.6749941511307517 l 23.228848815625618 20.67523777386286" fill="#b0ff20" stroke="none" /><path d="M 84.80347519578584 85.50635884689758 l -22.54375316825752 -21.501038748953402 a52.15309734513274,52.15309734513274 0 0,0 0.6251808743019016,-0.6443038459184393 l 22.170308030252503 21.885906790421963" fill="#afff20" stroke="none" /><path d="M 85.31137513191541 84.99185889309783 l -21.846621411469762 -22.32184290884979 a52.23362831858407,52.23362831858407 0 0,0 0.6479874011386462,-0.6233633664956258 l 21.459150766718686 22.694589362107727" fill="#aeff20" stroke="none" /><path d="M 85.57189188830299 84.74124197986013 l -22.876425103354418 -24.19345851275864 a54.296460176991154,54.296460176991154 0 0,0 0.6846321234625623,-0.6362909448541931 l 22.456585096096997 24.58365404368748" fill="#94ff23" stroke="none" /><path d="M 85.83668400450813 84.49514656593479 l -21.504008091090466 -23.540849741927342 a52.88407079646018,52.88407079646018 0 0,0 0.6773920940687883,-0.6081693103647986 l 21.095605009425704 23.907518061061417" fill="#a6ff21" stroke="none" /><path d="M 86.10567301691215 84.25364557470407 l -20.60377042595357 -23.350124984059793 a52.14070796460177,52.14070796460177 0 0,0 0.6780928899085863,-0.5880354720904274 l 20.19878373739821 23.7013254495699" fill="#afff20" stroke="none" /><path d="M 87.22198572758235 83.33499621200491 l -18.90693793228524 -24.658306489847604 a52.07256637168142,52.07256637168142 0 0,0 0.716007324928311,-0.5392818727474302 l 18.479684453598537 24.98010495210089" fill="#b0ff20" stroke="none" /><path d="M 87.51073957382395 83.11751280151077 l -17.683908568036877 -23.90440665272812 a50.73451327433628,50.73451327433628 0 0,0 0.706549810932899,-0.5133384857968998 l 17.269813440750195 24.205264373341688" fill="#c1ff1e" stroke="none" /><path d="M 87.80319425747018 82.90503203632743 l -18.02176990098286 -25.259201926264275 a52.02920353982301,52.02920353982301 0 0,0 0.7335346190669136,-0.5138878777656773 l 17.584304142332286 25.565674646793894" fill="#b1ff20" stroke="none" /><path d="M 88.09926311788651 82.69761687909137 l -17.587814684185417 -25.570778594617174 a52.0353982300885,52.0353982300885 0 0,0 0.7423600492581321,-0.5012448190829529 l 17.145049940520746 25.869735325998793" fill="#b1ff20" stroke="none" /><path d="M 88.39885842347998 82.49532879139004 l -10.937241439102655 -16.502928962453517 a40.79823008849557,40.79823008849557 0 0,0 0.5887242384025618,-0.38292262108710984 l 10.651550174915805 16.688750507700163" fill="#ffb310" stroke="none" /><line stroke="#e1ed5e" stroke-width="0.3" x1="56.762969772571076" x2="54.21961505331055" y1="26.818313649435495" y2="22.513508569990535" /><path d="M 56.25429882871897 25.957352633546506 a86.0,86.0 0 0,1 42.265352541879196,-11.944610805530505" fill="none" id="id12" stroke="none" /><text fill="#e1ed5e" style="font-size:6.75px; font-family:Arial;" text-anchor="middle"><textPath startOffset="22.20632615414155" xlink:href="#id12">December</textPath></text><path d="M 90.26544431104013 81.39251694778311 l -28.833237071636024 -55.11437679271677 a83.20088495575222,83.20088495575222 0 0,0 1.2747148646593849,-0.6529584638724905 l 27.880261719387875 55.60252778190176" fill="#4cdaff" stroke="none" /><path d="M 90.91171255644093 81.06846463323043 l -26.921705754637205 -56.079787065811175 a83.20707964601769,83.20707964601769 0 0,0 1.2965318778240882,-0.6087391012328666 l 25.952395665513507 56.53489114968405" fill="#4cdaff" stroke="none" /><path d="M 91.23893434514133 80.91482961587045 l -25.944642510066735 -56.51800161837067 a83.18849557522124,83.18849557522124 0 0,0 1.3065263513597896,-0.5862002895261159 l 24.96793404024017 56.95622223841332" fill="#4cdaff" stroke="none" /><path d="M 92.91201910852362 80.23233633223022 l -16.82297765569881 -46.9175875725297 a70.84247787610619,70.84247787610619 0 0,0 1.1514196464696957,-0.40170770593587274 l 16.01287600516583 47.20021613163778" fill="#3aff97" stroke="none" /><path d="M 93.25333710446033 80.11325718540243 l -15.961131687972902 -47.04769244043438 a70.68141592920354,70.68141592920354 0 0,0 1.1555306779392653,-0.380960296814791 l 15.148918187791226 47.31546646150841" fill="#3aff95" stroke="none" /><path d="M 93.94186890950719 79.89281104454417 l -14.359021625991064 -47.65818975135325 a70.77433628318585,70.77433628318585 0 0,0 1.1694946202094136,-0.3414075492931758 l 13.536536788058228 47.898295629565126" fill="#3aff96" stroke="none" /><path d="M 94.28887869178378 79.79150937346287 l -13.518005125996165 -47.832722356145666 a70.70619469026548,70.70619469026548 0 0,0 1.1740666349263809,-0.32091676194945656 l 12.692640601846062 48.05832565892142" fill="#3aff95" stroke="none" /><path d="M 96.04723909329186 79.375362276772 l -5.964121545077328 -31.11947550274669 a52.6858407079646,52.6858407079646 0 0,0 0.8921591430737146,-0.1630363808589937 l 5.427567280900719 31.217527364956418" fill="#a8ff21" stroke="none" /><path d="M 96.40284397218896 79.31037775812273 l -5.320395375647353 -30.601110891083376 a52.06017699115044,52.06017699115044 0 0,0 0.8842068883801784,-0.14590171275969754 l 4.792859281128289 30.6881588667827" fill="#b0ff20" stroke="none" /><path d="M 96.75951476605007 79.25152402106235 l -4.79190338577904 -30.682038372393635 a52.053982300884954,52.053982300884954 0 0,0 0.8864818458578361,-0.13064438041161588 l 4.2630525594925555 30.75997723696622" fill="#b0ff20" stroke="none" /><path d="M 97.47563105711357 79.15227682838746 l -3.7232580278560863 -30.74885423541673 a51.97345132743363,51.97345132743363 0 0,0 0.8890759166824383,-0.09989803846067218 l 3.1934154076639296 30.808388227347997" fill="#b1ff20" stroke="none" /><path d="M 99.27714615592234 79.0124445844662 l -1.066156112208941 -30.9550964830882 a51.97345132743363,51.97345132743363 0 0,0 0.8943724279395178,-0.023099001157994868 l 0.5331570490745441 30.968862276388556" fill="#b1ff20" stroke="none" /></svg>