<?xml version="1.0" encoding="utf-8" ?>
<svg baseProfile="full" height="200mm" version="1.1" viewBox="0,0,200,200" width="200mm" xmlns="http://www.w3.org/2000/svg" xmlns:ev="http://www.w3.org/2001/xml-events" xmlns:xlink="http://www.w3.org/1999/xlink"><defs /><rect fill="#1a1a1a" height="200" width="200" x="0" y="0" /><text alignment-baseline="middle" fill="#e1ed5e" style="dominant-baseline: central; font-size:9.0px; font-family:Arial;" text-anchor="middle" x="100.0" y="100.0">2020</text><line stroke="#e1ed5e" stroke-width="0.3" x1="100.0" x2="100.0" y1="15.0" y2="10.0" /><path d="M 100.0 14.0 a86.0,86.0 0 0,1 42.35913384403234,11.155469271406648" fill="none" id="id13" stroke="none" /><text fill="#e1ed5e" style="font-size:6.75px; font-family:Arial;" text-anchor="middle"><textPath startOffset="22.145653131862478" xlink:href="#id13">January</textPath></text><path d="M 100.0 79.0 l 0.0 -62.862089552238814 a83.86208955223881,83.86208955223881 0 0,0 1.4396042831725313,0.012357271356761266 l -1.0791113583236764 62.852826679076486" fill="#4dd4ff" stroke="none" /><path d="M 100.36049292484886 79.00309439819443 l 1.0771743814140409 -62.74000748479813 a83.74925373134329,83.74925373134329 0 0,0 1.4372436191089242,0.03701829737414849 l -2.154031314593706 62.71227147007393" fill="#4dd5ff" stroke="none" /><path d="M 100.72087961077811 79.0123766808444 l 2.155752818141833 -62.762391167552515 a83.79940298507464,83.79940298507464 0 0,0 1.4372564872501556,0.06172197769656485 l -3.232835065992825 62.716136621430124" fill="#4dd5ff" stroke="none" /><path d="M 102.15924093988457 79.11130261209362 l 6.471277324310766 -62.6037378431582 a83.93731343283582,83.93731343283582 0 0,0 1.431986948526965,0.16045712442139112 l -7.5450001744385276 62.48342495822983" fill="#4dd3ff" stroke="none" /><path d="M 102.51750503828377 79.15144685158666 l 7.53147328169551 -62.37140288161149 a83.8244776119403,83.8244776119403 0 0,0 1.4271004673660697,0.18476672704725103 l -8.601051570952372 62.23292455836384" fill="#4dd4ff" stroke="none" /><path d="M 102.87502721639298 79.19773525538626 l 8.62508164917894 -62.40679423384121 a84.0,84.0 0 0,0 1.4266995775692721,0.20967570680447034 l -9.695106332355895 62.24953745373786" fill="#4dd2ff" stroke="none" /><path d="M 103.23170211078529 79.25015418208739 l 9.65844821886042 -62.01416606834064 a83.76179104477612,83.76179104477612 0 0,0 1.41885492662832,0.23347203823906845 l -10.72158064854181 61.839228031605906" fill="#4dd5ff" stroke="none" /><line stroke="#e1ed5e" stroke-width="0.3" x1="143.13028292997686" x2="145.6673583964461" y1="26.7553504044142" y2="22.446841604673864" /><path d="M 143.63769802327073 25.89364864446614 a86.0,86.0 0 0,1 29.32050498858742,28.57503671076993" fill="none" id="id14" stroke="none" /><text fill="#e1ed5e" style="font-size:6.75px; font-family:Arial;" text-anchor="middle"><textPath startOffset="20.669276256404974" xlink:href="#id14">February</textPath></text><line stroke="#e1ed5e" stroke-width="0.3" x1="172.87174338648825" x2="177.1583165268699" y1="56.24261187166439" y2="53.66864786411523" /><path d="M 173.72905801456457 55.72781907015455 a86.0,86.0 0 0,1 12.242430191666344,42.057860355516425" fill="none" id="id15" stroke="none" /><text fill="#e1ed5e" style="font-size:6.75px; font-family:Arial;" text-anchor="middle"><textPath startOffset="22.145653131862474" xlink:href="#id15">March</textPath></text><line stroke="#e1ed5e" stroke-width="0.3" x1="184.99686870605535" x2="189.99668451229388" y1="99.2704041080226" y2="99.22748670261217" /><path d="M 185.99683186730306 99.26182062694052 a86.0,86.0 0 0,1 -10.086455211305974,41.156179273409016" fill="none" id="id16" stroke="none" /><text fill="#e1ed5e" style="font-size:6.75px; font-family:Arial;" text-anchor="middle"><textPath startOffset="21.40746469413373" xlink:href="#id16">April</textPath></text><line stroke="#e1ed5e" stroke-width="0.3" x1="174.33088141563837" x2="178.70328620479359" y1="141.23008692659167" y2="143.65538615756765" /><path d="M 175.20536237346943 141.71514677278685 a86.0,86.0 0 0,1 -30.301960400862466,31.631185727798858" fill="none" id="id17" stroke="none" /><text fill="#e1ed5e" style="font-size:6.75px; font-family:Arial;" text-anchor="middle"><textPath startOffset="22.145653131862474" xlink:href="#id17">May</textPath></text><line stroke="#e1ed5e" stroke-width="0.3" x1="143.1302829299769" x2="145.66735839644613" y1="173.24464959558577" y2="177.55315839532614" /><path d="M 143.63769802327073 174.10635135553383 a86.0,86.0 0 0,1 -40.68552437913181,11.842963189579606" fill="none" id="id18" stroke="none" /><text fill="#e1ed5e" style="font-size:6.75px; font-family:Arial;" text-anchor="middle"><textPath startOffset="21.407464694133747" xlink:href="#id18">June</textPath></text><line stroke="#e1ed5e" stroke-width="0.3" x1="101.45913802915013" x2="101.54496967792366" y1="184.9874750549273" y2="189.98673829345242" /><path d="M 101.47630435890484 185.9873277026323 a86.0,86.0 0 0,1 -42.54439059252881,-10.42667462771756" fill="none" id="id19" stroke="none" /><text fill="#e1ed5e" style="font-size:6.75px; font-family:Arial;" text-anchor="middle"><textPath startOffset="22.145653131862474" xlink:href="#id19">July</textPath></text><line stroke="#e1ed5e" stroke-width="0.3" x1="58.13341422392154" x2="55.67067388415222" y1="173.97424548756322" y2="178.32567169271397" /><path d="M 57.64086615596768 174.84453072859336 a86.0,86.0 0 0,1 -31.369924170532247,-30.572349798747897" fill="none" id="id20" stroke="none" /><text fill="#e1ed5e" style="font-size:6.75px; font-family:Arial;" text-anchor="middle"><textPath startOffset="22.145653131862474" xlink:href="#id20">August</textPath></text><line stroke="#e1ed5e" stroke-width="0.3" x1="26.387840678322732" x2="22.057713659400548" y1="142.50000000000003" y2="145.00000000000006" /><path d="M 25.521815274538298 143.00000000000003 a86.0,86.0 0 0,1 -11.493303480769221,-40.785679425670985" fill="none" id="id21" stroke="none" /><text fill="#e1ed5e" style="font-size:6.75px; font-family:Arial;" text-anchor="middle"><textPath startOffset="21.40746469413373" xlink:href="#id21">September</textPath></text><line stroke="#e1ed5e" stroke-width="0.3" x1="15.003131293944662" x2="10.003315487706104" y1="100.72959589197737" y2="100.7725132973878" /><path d="M 14.003168132696942 100.73817937305945 a86.0,86.0 0 0,1 10.791469493833604,-42.45332614584628" fill="none" id="id22" stroke="none" /><text fill="#e1ed5e" style="font-size:6.75px; font-family:Arial;" text-anchor="middle"><textPath startOffset="22.145653131862435" xlink:href="#id22">October</textPath></text><line stroke="#e1ed5e" stroke-width="0.3" x1="26.387840678322718" x2="22.05771365940052" y1="57.49999999999999" y2="54.99999999999999" /><path d="M 25.521815274538284 56.99999999999999 a86.0,86.0 0 0,1 29.574782752854787,-30.34633250058573" fill="none" id="id23" stroke="none" /><text fill="#e1ed5e" style="font-size:6.75px; font-family:Arial;" text-anchor="middle"><textPath startOffset="21.40746469413373" xlink:href="#id23">November</textPath></text><path d="M 82.18462484594161 88.88188828441811 l -22.36760235760285 -13.959038171861913 a47.36597014925373,47.36597014925373 0 0,0 0.4364036782312763,-0.686099066903867 l 22.124680987745684 14.340950913444452" fill="#ff5007" stroke="none" /><path d="M 82.37810715431573 88.57770195909679 l -21.16731248090553 -13.720396213908819 a46.22507462686568,46.22507462686568 0 0,0 0.4373234589249386,-0.6621634558590341 l 20.928664583059863 14.081739548106915" fill="#ff3705" stroke="none" /><path d="M 82.576782715395 88.27688183743585 l -20.959870345360645 -14.102736177651803 a46.26268656716418,46.26268656716418 0 0,0 0.44899096785163806,-0.6550912403531773 l 20.714689640693695 14.460462153075015" fill="#ff3805" stroke="none" /><path d="M 83.2033758604659 87.39550010848427 l -20.31639433235588 -15.245801062812466 a46.400597014925374,46.400597014925374 0 0,0 0.4835561383950512,-0.6329905075196939 l 20.051686216606523 15.592312483573044" fill="#ff3b05" stroke="none" /><path d="M 83.42222388311158 87.10902102172516 l -17.943586925324592 -13.953041723947644 a43.73014925373134,43.73014925373134 0 0,0 0.46590011338640774,-0.5886495735078126 l 17.70142038129662 14.259011241370139" fill="#ff0000" stroke="none" /><path d="M 83.64595745247003 86.82634096563983 l -19.673669094491284 -15.847715196558651 a46.26268656716418,46.26268656716418 0 0,0 0.5034992459757944,-0.6141872122582456 l 19.39872302927686 16.18310469051539" fill="#ff3805" stroke="none" /><path d="M 84.34580500576568 86.00192230759919 l -18.70092190057484 -16.722479679100918 a46.08716417910448,46.08716417910448 0 0,0 0.5324215234061499,-0.5852245207462985 l 18.411102676326824 17.041041775404874" fill="#ff3405" stroke="none" /><path d="M 84.83555147118756 85.47280134310135 l -18.2244984408952 -17.458657251544466 a46.23761194029851,46.23761194029851 0 0,0 0.5539996879736361,-0.5684524845696779 l 17.922111951770763 17.768932428181873" fill="#ff3705" stroke="none" /><path d="M 85.60350026404147 84.71141617570332 l -17.937608924743554 -19.049119069437115 a47.16537313432836,47.16537313432836 0 0,0 0.5942168360100942,-0.549998232268681 l 17.607962317419506 19.354235047838163" fill="#ff4c07" stroke="none" /><path d="M 85.86807049272753 84.46653392183569 l -17.025811191448277 -18.714348982528705 a46.300298507462685,46.300298507462685 0 0,0 0.5925004513081873,-0.5298175570988658 l 16.7020457133167 19.00386206951097" fill="#ff3905" stroke="none" /><line stroke="#e1ed5e" stroke-width="0.3" x1="56.869717070023135" x2="54.33264160355391" y1="26.7553504044142" y2="22.446841604673864" /><path d="M 56.362301976729285 25.89364864446614 a86.0,86.0 0 0,1 42.16139366436587,-11.88097634709845" fill="none" id="id24" stroke="none" /><text fill="#e1ed5e" style="font-size:6.75px; font-family:Arial;" text-anchor="middle"><textPath startOffset="22.145653131862474" xlink:href="#id24">December</textPath></text></svg>