<?xml version="1.0" encoding="utf-8" ?>
<svg baseProfile="full" height="200mm" version="1.1" viewBox="0,0,200,200" width="200mm" xmlns="http://www.w3.org/2000/svg" xmlns:ev="http://www.w3.org/2001/xml-events" xmlns:xlink="http://www.w3.org/1999/xlink"><defs /><rect fill="#1a1a1a" height="200" width="200" x="0" y="0" /><text alignment-baseline="middle" fill="#e1ed5e" style="dominant-baseline: central; font-size:9.0px; font-family:Arial;" text-anchor="middle" x="100.0" y="100.0">2019</text><line stroke="#e1ed5e" stroke-width="0.3" x1="100.0" x2="100.0" y1="15.0" y2="10.0" /><path d="M 100.0 14.0 a86.0,86.0 0 0,1 42.46469731375804,11.215312516191453" fill="none" id="id1" stroke="none" /><text fill="#e1ed5e" style="font-size:6.75px; font-family:Arial;" text-anchor="middle"><textPath startOffset="22.20632615414155" xlink:href="#id1">January</textPath></text><line stroke="#e1ed5e" stroke-width="0.3" x1="143.23703022742887" x2="145.7803849466894" y1="26.81831364943548" y2="22.513508569990506" /><path d="M 143.74570117128098 25.957352633546492 a86.0,86.0 0 0,1 28.547481713284135,27.462654790039103" fill="none" id="id2" stroke="none" /><text fill="#e1ed5e" style="font-size:6.75px; font-family:Arial;" text-anchor="middle"><textPath startOffset="19.985693538727396" xlink:href="#id2">February</textPath></text><line stroke="#e1ed5e" stroke-width="0.3" x1="172.23445277983987" x2="176.4835382374775" y1="55.19839476539836" y2="52.563006222186495" /><path d="M 173.08426987136738 54.67131705675599 a86.0,86.0 0 0,1 12.851231095245387,41.99856678651699" fill="none" id="id3" stroke="none" /><text fill="#e1ed5e" style="font-size:6.75px; font-family:Arial;" text-anchor="middle"><textPath startOffset="22.20632615414155" xlink:href="#id3">March</textPath></text><line stroke="#e1ed5e" stroke-width="0.3" x1="184.98032266829074" x2="189.97916517819016" y1="98.17113171792111" y2="98.06355123074" /><path d="M 185.9800911702706 98.14961562048488 a86.0,86.0 0 0,1 -9.607161424134198,41.387399972396054" fill="none" id="id4" stroke="none" /><text fill="#e1ed5e" style="font-size:6.75px; font-family:Arial;" text-anchor="middle"><textPath startOffset="21.466115282336823" xlink:href="#id4">April</textPath></text><line stroke="#e1ed5e" stroke-width="0.3" x1="174.80103733775053" x2="179.2010983576182" y1="140.37084112569926" y2="142.7455964860345" /><path d="M 175.68104954172406 140.8457921977663 a86.0,86.0 0 0,1 -30.038265399797805,32.042727171017184" fill="none" id="id5" stroke="none" /><text fill="#e1ed5e" style="font-size:6.75px; font-family:Arial;" text-anchor="middle"><textPath startOffset="22.206326154141568" xlink:href="#id5">May</textPath></text><line stroke="#e1ed5e" stroke-width="0.3" x1="143.8653032363475" x2="146.44561519142675" y1="172.8068346515853" y2="177.08958963109032" /><path d="M 144.38136562736335 173.6633856474863 a86.0,86.0 0 0,1 -40.68145358897372,12.25698825130547" fill="none" id="id6" stroke="none" /><text fill="#e1ed5e" style="font-size:6.75px; font-family:Arial;" text-anchor="middle"><textPath startOffset="21.466115282336833" xlink:href="#id6">June</textPath></text><path d="M 107.93186726928326 119.44442032107085 l 3.1541015913774246 7.7320604336894 a29.350635628438994,29.350635628438994 0 0,0 -0.4694409482079691,0.18680024144897783 l -3.0205395671275896 -7.785207519544446" fill="#ff0601" stroke="none" /><path d="M 107.59598834532513 119.57807347666477 l 4.992135521138269 12.866843864822947 a34.801343706434615,34.801343706434615 0 0,0 -0.5603509840334541,0.21187679483372637 l -4.76991431634454 -12.950868909763305" fill="#ff5d08" stroke="none" /><path d="M 107.2578585660854 119.70592522655815 l 4.599198333780449 12.487355277366792 a34.30739144748621,34.30739144748621 0 0,0 -0.5559111540665851,0.19932996147678259 l -4.383567619084129 -12.564672779883535" fill="#ff5607" stroke="none" /><path d="M 106.91757812671514 119.82793768551818 l 4.555715043387223 13.05810102012591 a34.82998705018765,34.82998705018765 0 0,0 -0.5677789889849364,0.19262146011361178 l -4.33026632146506 -13.134585467137645" fill="#ff5e08" stroke="none" /><path d="M 106.57524785965236 119.94407469862006 l 7.86096763677572 23.843926358021545 a46.106326620061125,46.106326620061125 0 0,0 -0.755877338645353,0.24200805401462525 l -7.449368953039427 -23.975707258695877" fill="#fcff18" stroke="none" /><path d="M 106.2309692047433 120.05430185196036 l 3.705069644689733 11.924723521435606 a33.48705618369201,33.48705618369201 0 0,0 -0.5519384846429201,0.1662945378024834 l -3.499256185606567 -11.986733428343815" fill="#ff4906" stroke="none" /><path d="M 105.88484417918355 120.15858648285463 l 3.679798935489466 12.60518423630926 a34.13132094790653,34.13132094790653 0 0,0 -0.5653915594854784,0.15978530225423682 l -3.462276207899382 -12.666658331902015" fill="#ff5307" stroke="none" /><path d="M 105.18746579009965 120.34920634021253 l 3.8793695802824546 15.217853042958536 a36.70453945766966,36.70453945766966 0 0,0 -0.6135718100775301,0.15080102278908455 l -3.6168444854617134 -15.282375324061652" fill="#ff7a0b" stroke="none" /><path d="M 104.83641907484287 120.43548508189849 l 3.6247959664769174 15.315972985709795 a36.73906522947216,36.73906522947216 0 0,0 -0.6166562011204878,0.14034894371479886 l -3.3606196159635675 -15.376098663002278" fill="#ff7b0b" stroke="none" /><path d="M 104.48393922423573 120.51570834832081 l 3.3464435407625137 15.311237787373829 a36.67267325484122,36.67267325484122 0 0,0 -0.6178621395130146,0.12947901869600978 l -3.082389939820121 -15.366572786796379" fill="#ff7a0b" stroke="none" /><path d="M 104.13013068566511 120.58985236759428 l 3.0824587330894975 15.36691574041411 a36.67302304005793,36.67302304005793 0 0,0 -0.6200052786085053,0.11882548727032 l -2.817485839909288 -15.417698426032898" fill="#ff7a0b" stroke="none" /><path d="M 103.7750983002368 120.6578951692458 l 2.8144244722862584 15.400946170488425 a36.65599335898192,36.65599335898192 0 0,0 -0.6216699874531008,0.10808529592917704 l -2.5489055133611074 -15.447110044938608" fill="#ff7a0b" stroke="none" /><path d="M 103.41894727170886 120.7198165907248 l 2.6181225651683864 15.866585545559795 a37.081141210772664,37.081141210772664 0 0,0 -0.6306692274741068,0.0984975629637091 l -2.3446174740857626 -15.90930141587061" fill="#ff800b" stroke="none" /><path d="M 102.70371172650421 120.8252237178851 l 2.4233686700173305 18.665893338146905 a39.82254737865995,39.82254737865995 0 0,0 -0.6805342951637237,0.08240322576901574 l -2.1017069518022264 -18.704842092641268" fill="#ffa90f" stroke="none" /><path d="M 102.34483914955558 120.86867818915974 l 2.0063718782947726 17.856375804647055 a38.9687418866986,38.9687418866986 0 0,0 -0.6672328254165097,0.0691614105048475 l -1.6987064562726601 -17.88826658360766" fill="#ff9c0e" stroke="none" /><path d="M 101.98527174616119 120.90594882070398 l 2.450762737403922 25.807812184365215 a46.92391574856154,46.92391574856154 0 0,0 -0.8047578519362666,0.06943789370950244 l -2.0061605677261136 -25.846174330353378" fill="#f1ff19" stroke="none" /><path d="M 101.62511606390274 120.93702456842531 l 1.2176568686058291 15.687563700950516 a36.73474954109671,36.73474954109671 0 0,0 -0.6308532694275512,0.043507334993652814 l -0.9474408383993478 -15.706199380460454" fill="#ff7b0b" stroke="none" /><path d="M 101.26447882468166 120.96189622390904 l 0.930178791637831 15.420037820642895 a36.44806780715537,36.44806780715537 0 0,0 -0.6265803505551253,0.032387047067899404 l -0.6646103726692262 -15.433764674472997" fill="#ff770a" stroke="none" /><path d="M 100.90346689309514 120.98055641714683 l 0.7000762952285109 16.2573640723348 a37.272430469956944,37.272430469956944 0 0,0 -0.6412271701150961,0.022085160261289438 l -0.4201287734387624 -16.26700603102218" fill="#ff830c" stroke="none" /><line stroke="#e1ed5e" stroke-width="0.3" x1="102.19456741930631" x2="102.32365962044197" y1="184.97166512339345" y2="189.96999836594603" /><path d="M 102.22038585953345 185.97133177190398 a86.0,86.0 0 0,1 -42.740103519485714,-10.115201625700543" fill="none" id="id7" stroke="none" /><text fill="#e1ed5e" style="font-size:6.75px; font-family:Arial;" text-anchor="middle"><textPath startOffset="22.20632615414155" xlink:href="#id7">July</textPath></text><path d="M 100.18074693466247 120.99922214144158 l 0.14907545244319886 17.31962175478473 a38.32026331264434,38.32026331264434 0 0,0 -0.6596447742112967,0.0 l 0.14907545244318693 -17.31962175478473" fill="#ff930d" stroke="none" /><path d="M 99.81925306533755 120.99922214144158 l -0.13216338946334188 15.354774228894154 a36.35534300436908,36.35534300436908 0 0,0 -0.6257279261694089,-0.010772473708030025 l 0.3964510055254187 -15.350224277906966" fill="#ff750a" stroke="none" /><path d="M 99.45781275523022 120.99299961872073 l -0.38930956335255384 15.073714097598822 a36.07874061824353,36.07874061824353 0 0,0 -0.6206911772657521,-0.02137785914502295 l 0.648721092292949 -15.064779440027706" fill="#ff710a" stroke="none" /><path d="M 99.09653310690486 120.98055641714683 l -1.3422413098310702 31.169896474967356 a52.198782956935986,52.198782956935986 0 0,0 -0.897351593416596,-0.04638282746449085 l 1.878580971661155 -31.14217384074066" fill="#acff21" stroke="none" /><path d="M 98.73552117531835 120.96189622390904 l -2.0212685369276597 33.50757678555608 a54.56848564559192,54.56848564559192 0 0,0 -0.9371156196048026,-0.064628979773581 l 2.597746917311392 -33.46781946126622" fill="#8fff24" stroke="none" /><path d="M 98.37488393609728 120.93702456842531 l -2.447810540436491 31.536128749409226 a52.63098469762184,52.63098469762184 0 0,0 -0.9026356286526892,-0.07788320013280109 l 2.9902904868307223 -31.489321296997762" fill="#a7ff21" stroke="none" /><path d="M 97.65516085044442 120.86867818915974 l -2.1359116277653847 19.009258016170616 a40.12887892185452,40.12887892185452 0 0,0 -0.6857692470830817,-0.08303710554255675 l 2.462808297899856 -18.96967538190271" fill="#ffae10" stroke="none" /><path d="M 97.2962882734958 120.8252237178851 l -2.0248745741584138 15.596509640481772 a36.72740379104937,36.72740379104937 0 0,0 -0.6262396770243415,-0.0867911129266369 l 2.2930428423695863 -15.55934396206253" fill="#ff7b0b" stroke="none" /><path d="M 96.93821686468263 120.77559828337769 l -3.428383865231586 23.263151829295797 a44.51442214812536,44.51442214812536 0 0,0 -0.7570931020714806,-0.11824237213751985 l 3.828312830911584 -23.20069114981117" fill="#ffec16" stroke="none" /><path d="M 96.58105272829116 120.7198165907248 l -2.601487061720098 15.765769547841764 a36.978961930236636,36.978961930236636 0 0,0 -0.6271473964452232,-0.10903761369227856 l 2.872483429637371 -15.71865335562848" fill="#ff7f0b" stroke="none" /><path d="M 96.22490169976321 120.6578951692458 l -2.7678209641722655 15.145924894598116 a36.39674880624213,36.39674880624213 0 0,0 -0.615334502405474,-0.11793032189446488 l 3.0281230811494346 -15.096037374355182" fill="#ff760a" stroke="none" /><path d="M 95.86986931433489 120.58985236759428 l -3.2916907004478326 16.40999540214054 a37.736880735838696,37.736880735838696 0 0,0 -0.6357919344457437,-0.1332363815522972 l 3.573674096322963 -16.350903039861702" fill="#ff8a0c" stroke="none" /><path d="M 95.16358092515715 120.4354850818985 l -7.304401647438601 30.8635353116658 a52.71611728067522,52.71611728067522 0 0,0 -0.881229514879653,-0.21658477454984187 l 7.834584447061465 -30.733229278801925" fill="#a5ff21" stroke="none" /><path d="M 94.46302465271185 120.25689768951611 l -2.129883499639532 7.79213007764566 a29.077975914112823,29.077975914112823 0 0,0 -0.4816819769106952,-0.13612813806618304 l 2.263696644654841 -7.754313146240956" fill="#ff0200" stroke="none" /><path d="M 94.11515582081647 120.15858648285463 l -4.318937373689721 14.794558685092747 a36.412079247282215,36.412079247282215 0 0,0 -0.6001491361975881,-0.1808200116378998 l 4.572961484327554 -14.718023304349122" fill="#ff760a" stroke="none" /><path d="M 93.76903079525671 120.05430185196036 l -2.3676895334972166 7.62038120174542 a28.979734543639108,28.979734543639108 0 0,0 -0.47510019182408014,-0.15211207825250983 l 2.498511070412237 -7.578496276833204" fill="#ff0000" stroke="none" /><path d="M 93.42475214034765 119.94407469862007 l -6.958720467355448 21.107225730512813 a43.22473326232767,43.22473326232767 0 0,0 -0.7046254514957052,-0.23904721015295644 l 7.32101565178838 -20.984315533461732" fill="#ffda14" stroke="none" /><path d="M 93.08242187328487 119.8279376855182 l -2.6619977059832265 7.6301161571834335 a29.081144990579716,29.081144990579716 0 0,0 -0.4712259426088138,-0.1689648576035307 l 2.7929432092217668 -7.5831637585399445" fill="#ff0200" stroke="none" /><path d="M 92.40401165467489 119.57807347666478 l -5.657871236213431 14.582726269224375 a36.6418481123139,36.6418481123139 0 0,0 -0.5860583102762699,-0.2332046965240174 l 5.90805062253156 -14.48317472829429" fill="#ff7a0b" stroke="none" /><path d="M 92.06813273071674 119.44442032107085 l -5.054869445071866 12.391660478075188 a34.38300991969339,34.38300991969339 0 0,0 -0.5460816722190293,-0.22826218327609 l 5.267422576788357 -12.302813251779124" fill="#ff5708" stroke="none" /><path d="M 91.7346041902142 119.30500536409082 l -11.096861516538082 25.91829550953985 a49.19394221525357,49.19394221525357 0 0,0 -0.7755760571215292,-0.33998975136274917 l 11.541358248317355 -25.723441204882647" fill="#d3ff1c" stroke="none" /><path d="M 91.40352486487194 119.15986991738527 l -7.4516499947035975 16.60827750027324 a39.203350492962784,39.203350492962784 0 0,0 -0.6133121576231138,-0.28154153050303937 l 7.73643014809413 -16.477548899436126" fill="#ffa00e" stroke="none" /><path d="M 91.07499286063937 119.00905698771935 l -3.387349318185957 7.214595486735029 a28.97022731423843,28.97022731423843 0 0,0 -0.4495728612792226,-0.21582229391181765 l 3.511034847465422 -7.1552189163236495" fill="#ff0000" stroke="none" /><path d="M 90.42595943632237 118.69057910512821 l -28.470650692978673 55.580812031486275 a83.44841564812526,83.44841564812526 0 0,0 -1.2728231762783269,-0.6658809284904352 l 29.423164771783494 -55.082501684051124" fill="#4cd8ff" stroke="none" /><path d="M 90.10565033884886 118.52300852407294 l -15.430008162581476 28.886200964193502 a53.74901155823034,53.74901155823034 0 0,0 -0.8123195311043374,-0.4429413766106741 l 15.924950505554454 -28.61631893582306" fill="#99ff23" stroke="none" /><line stroke="#e1ed5e" stroke-width="0.3" x1="58.666819895761336" x2="56.23545636021788" y1="174.27360380694188" y2="178.64263932499728" /><path d="M 58.180547188652646 175.14741091055294 a86.0,86.0 0 0,1 -31.652253787137756,-30.449443065178592" fill="none" id="id8" stroke="none" /><text fill="#e1ed5e" style="font-size:6.75px; font-family:Arial;" text-anchor="middle"><textPath startOffset="22.20632615414155" xlink:href="#id8">August</textPath></text><path d="M 89.4739219176387 118.17145234162733 l -4.9290336900699225 8.509123729518127 a30.833644276772105,30.833644276772105 0 0,0 -0.456972416772063,-0.26998735861902445 l 5.074773977870367 -8.423017798605352" fill="#ff1e03" stroke="none" /><path d="M 89.1626897886671 117.98757091392108 l -5.1532751544536 8.553312627587964 a30.985759947183013,30.985759947183013 0 0,0 -0.454488503316035,-0.2791839593378253 l 5.299742857701943 -8.46334020142176" fill="#ff2103" stroke="none" /><path d="M 88.54995079064634 117.60387380957326 l -13.078719253408634 20.107871950433132 a44.98706759244442,44.98706759244442 0 0,0 -0.6455115092904293,-0.42780982969094133 l 13.422905461439026 -19.879764099650874" fill="#fff316" stroke="none" /><path d="M 88.24862548938628 117.40417183066458 l -10.560027809797155 15.63974821603298 a39.871033665504285,39.871033665504285 0 0,0 -0.5654910895352104,-0.388949927805366 l 10.827675783955257 -15.455657498862514" fill="#ffaa0f" stroke="none" /><path d="M 87.95078237400918 117.19931262002967 l -12.665080337776175 18.078408312364683 a43.07335740368694,43.07335740368694 0 0,0 -0.6035862848429946,-0.43064278802565975 l 12.974393950468055 -17.857721262494806" fill="#ffd814" stroke="none" /><path d="M 86.79598089348748 116.32954008644616 l -9.763727451069121 12.074897614070398 a36.52847468778063,36.52847468778063 0 0,0 -0.48553278305041886,-0.39956042554691107 l 9.970130362664229 -11.905042069666306" fill="#ff780b" stroke="none" /><path d="M 86.51685102203217 116.09983520530335 l -20.69310730373372 24.70903629561354 a53.229507668312046,53.229507668312046 0 0,0 -0.697394058302807,-0.594334346126645 l 21.115366838613582 -24.349177559263943" fill="#9fff22" stroke="none" /><path d="M 85.97065885151581 115.62618273729859 l -10.731810389768734 11.953321861496308 a37.06404861068572,37.06404861068572 0 0,0 -0.4710672034654485,-0.43030872147009275 l 10.935977142701038 -11.76682037343964" fill="#ff800b" stroke="none" /><path d="M 85.70375840098266 115.38237550388516 l -10.88419899091078 11.71110846005188 a36.98799077548026,36.98799077548026 0 0,0 -0.4626390349810325,-0.43745408404715797 l 11.084173860282629 -11.522019739258793" fill="#ff7f0b" stroke="none" /><path d="M 85.18274418774928 114.88116024355367 l -11.403846912505536 11.45302986249597 a37.16228998115943,37.16228998115943 0 0,0 -0.4494148540533461,-0.45525487443335094 l 11.599302391614415 -11.255034494081954" fill="#ff810b" stroke="none" /><path d="M 84.67929136418377 114.36230785411682 l -11.617918971398698 10.891149545219626 a36.92460924614238,36.92460924614238 0 0,0 -0.4307055080093664,-0.4674457635732209 l 11.803670887403793 -10.68955252684506" fill="#ff7e0b" stroke="none" /><path d="M 84.19399662182784 113.82643327865904 l -12.016933484477937 10.511912787939174 a36.96580724021201,36.96580724021201 0 0,0 -0.41482235075803325,-0.4825321101201248 l 12.196098344806748 -10.30350357865752" fill="#ff7e0b" stroke="none" /><path d="M 83.95833913139862 113.55231037782056 l -24.022885391654007 20.295005714510623 a52.44815224289914,52.44815224289914 0 0,0 -0.5766899119561049,-0.6946601491212399 l 24.36867130350365 -19.87848430827562" fill="#a9ff21" stroke="none" /><path d="M 83.72743513129214 113.27417163493432 l -24.18341806445804 19.72736594980788 a52.20908003447065,52.20908003447065 0 0,0 -0.5620732297089522,-0.7012727767718652 l 24.51940920622185 -19.308165339457755" fill="#acff21" stroke="none" /><path d="M 83.28015986056508 112.70617746262583 l -28.048158034901245 21.315088572567817 a56.228286503990034,56.228286503990034 0 0,0 -0.5789873071204119,-0.7756481146412625 l 28.410906608716743 -20.829127578417246" fill="#7aff26" stroke="none" /><path d="M 82.85270091963577 112.12312394758628 l -26.685333666900554 18.866505221046207 a53.68106565229445,53.68106565229445 0 0,0 -0.5269412464825672,-0.7590981666934035 l 27.006135820545257 -18.404365792165795" fill="#99ff23" stroke="none" /><path d="M 82.6465618267979 111.8261652097733 l -27.36765111378288 18.65073423748575 a54.118547901184684,54.118547901184684 0 0,0 -0.5179838127532741,-0.774315519099526 l 27.684638031946886 -18.1768818041804" fill="#94ff23" stroke="none" /><path d="M 82.44556493220864 111.52570212397912 l -26.04629524481323 17.10119632250298 a52.15863301945016,52.15863301945016 0 0,0 -0.48630507990998956,-0.754756283439754 l 26.336805188100264 -16.650318439141774" fill="#adff20" stroke="none" /><path d="M 82.05923443525364 110.91462005526583 l -26.787071378501953 16.29644540164683 a52.35476559896142,52.35476559896142 0 0,0 -0.46176684939352236,-0.7739478003630974 l 27.063619103593705 -15.832935507397622" fill="#aaff21" stroke="none" /><line stroke="#e1ed5e" stroke-width="0.3" x1="26.63291911575756" x2="22.317208475507996" y1="142.92168965132927" y2="145.44649492493687" /><path d="M 25.769776987707644 143.4266507060508 a86.0,86.0 0 0,1 -11.730757126820373,-40.83630448921669" fill="none" id="id9" stroke="none" /><text fill="#e1ed5e" style="font-size:6.75px; font-family:Arial;" text-anchor="middle"><textPath startOffset="21.46611528233685" xlink:href="#id9">September</textPath></text><path d="M 81.69416730710424 110.29060199501025 l -25.924202912384125 14.573259719169318 a50.739606511936714,50.739606511936714 0 0,0 -0.42143735003948635,-0.7650312050749043 l 26.171216671875126 -14.124857995696592" fill="#bfff1e" stroke="none" /><path d="M 81.51974371655577 109.97397251340807 l -51.429845908095515 27.757183752678717 a79.44219622849933,79.44219622849933 0 0,0 -0.6391218949481607,-1.208977765867141 l 51.90002031126856 -26.86779097172545" fill="#47fffc" stroke="none" /><path d="M 81.35079622478065 109.6543875284942 l -27.69396285678639 14.3367112527567 a52.184882046561995,52.184882046561995 0 0,0 -0.40610108767123476,-0.8012759727955279 l 27.93664261424389 -13.857881068258486" fill="#acff20" stroke="none" /><path d="M 81.18737489456691 109.33194174019688 l -45.659175732893395 22.649086209755914 a71.96804326972143,71.96804326972143 0 0,0 -0.5409486313303106,-1.1145144042324604 l 46.042277620838426 -21.85978284955817" fill="#3cffa6" stroke="none" /><path d="M 80.73074385275274 108.34839909993369 l -14.571450198193746 6.313076165978908 a36.88024217560587,36.88024217560587 0 0,0 -0.24735932970591423,-0.5846843866600248 l 14.677960509091967 -6.0613172536527244" fill="#ff7d0b" stroke="none" /><path d="M 80.32549172779594 107.34259656027581 l -14.845243134084127 5.540297610730226 a36.84538233447003,36.84538233447003 0 0,0 -0.21664337201398748,-0.5961095151565756 l 14.938410767103338 -5.283940298567534" fill="#ff7d0b" stroke="none" /><path d="M 80.0844068197444 106.66101706037122 l -39.484082627878095 13.205940973836844 a62.63399642082859,62.63399642082859 0 0,0 -0.3331763214298599,-1.0254112794412948 l 39.70555120032421 -12.524330794417747" fill="#31ff2f" stroke="none" /><path d="M 79.97269907076064 106.31721596034903 l -28.769145964542034 9.07465807274502 a51.16642469147382,51.16642469147382 0 0,0 -0.25771608947329566,-0.8422310917518766 l 28.92108882652146 -8.578100008441096" fill="#b9ff1f" stroke="none" /><path d="M 79.86692584326677 105.97154293290107 l -33.40753040090709 9.908794877432886 a55.84605147517537,55.84605147517537 0 0,0 -0.26542129228857864,-0.9239663384588197 l 33.573144330081774 -9.33227106346947" fill="#7fff26" stroke="none" /><path d="M 79.50377843672027 104.57218783832718 l -30.723752501277502 6.853690915684896 a52.47891432256674,52.47891432256674 0 0,0 -0.18908892851974887,-0.8833605230985949 l 30.837175468521693 -6.323816573170138" fill="#a8ff21" stroke="none" /><path d="M 79.4281124754447 104.21870165774334 l -31.17169585483031 6.392417070163163 a52.820396265052366,52.820396265052366 0 0,0 -0.17498659563864527,-0.8922528812313522 l 31.277112383444624 -5.854900461863856" fill="#a4ff21" stroke="none" /><path d="M 79.35854240842038 103.8639653848113 l -30.711147822258216 5.748955062235377 a52.24460089148519,52.24460089148519 0 0,0 -0.15786218072066327,-0.8853749444145909 l 30.805556445318068 -5.219461367087573" fill="#abff21" stroke="none" /><path d="M 79.23777060512086 103.15116336523772 l -30.119489418740567 4.571350688351885 a51.464420066062644,51.464420066062644 0 0,0 -0.1253917091219276,-0.8769893215496785 l 30.193715178879092 -4.052215894821805" fill="#b5ff1f" stroke="none" /><path d="M 79.18660465613746 102.79330883721812 l -27.014263993114703 3.6255104511413636 a48.25646318070319,48.25646318070319 0 0,0 -0.10340323867698507,-0.8242255516096001 l 27.072668741038537 -3.1599671452443547" fill="#dfff1b" stroke="none" /><path d="M 79.10278846688536 102.07522291339032 l -29.388205055001 2.918431314001311 a50.532758721279826,50.532758721279826 0 0,0 -0.07850722164356651,-0.8663206489354998 l 29.43408687292164 -2.4121292765172453" fill="#c1ff1e" stroke="none" /><path d="M 79.07016306316243 101.71520430193888 l -27.43897682540695 2.248629611103429 a48.530960469136396,48.530960469136396 0 0,0 -0.06106452318665171,-0.8331769028922592 l 27.47361790725794 -1.7759795717144091" fill="#dbff1b" stroke="none" /><path d="M 79.0095281055655 100.63252640178507 l -30.533792190818566 0.920104598145435 a51.54765225060056,51.54765225060056 0 0,0 -0.01909211466381931,-0.8871355474036156 l 30.545106368167392 -0.3943792349516905" fill="#b4ff20" stroke="none" /><line stroke="#e1ed5e" stroke-width="0.3" x1="15.007084014347285" x2="10.007500721073583" y1="101.09737516637583" y2="101.16192664675087" /><path d="M 14.007167355692545 101.11028546245083 a86.0,86.0 0 0,1 10.666146001902534,-42.60595125391555" fill="none" id="id10" stroke="none" /><text fill="#e1ed5e" style="font-size:6.75px; font-family:Arial;" text-anchor="middle"><textPath startOffset="22.20632615414155" xlink:href="#id10">October</textPath></text><path d="M 79.00175016825051 100.2711162175752 l -43.16649927688559 0.5573387355462734 a64.17009713085557,64.17009713085557 0 0,0 -0.004753790192348901,-1.1046134235978005 l 43.16969736436744 0.18578416625520244" fill="#31ff42" stroke="none" /><path d="M 79.00019446554 99.90962569577889 l -15.867418931892319 -0.06828667738859014 a36.86756586973829,36.86756586973829 0 0,0 0.008193365119105794,-0.6345851578798873 l 15.863892559655497 0.3414080933289494" fill="#ff7d0b" stroke="none" /><path d="M 79.05617556472873 98.46500227214037 l -30.186251320377206 -2.2123861538557015 a51.267216939632014,51.267216939632014 0 0,0 0.07208052587049801,-0.8795649888970974 l 30.14369631068721 2.7316650599605774" fill="#b8ff1f" stroke="none" /><path d="M 79.08570108090925 98.10471618934814 l -15.843840137186096 -1.435791552312304 a36.90876386380791,36.90876386380791 0 0,0 0.06278510155862428,-0.6322374044411334 l 15.816777909945243 1.7083044874578677" fill="#ff7e0b" stroke="none" /><path d="M 79.12142395522702 97.74499172005258 l -15.838833177947162 -1.7106865853487456 a36.930947399076175,36.930947399076175 0 0,0 0.07370299851134803,-0.6314422815825458 l 15.807039826432225 1.9830726052561531" fill="#ff7e0b" stroke="none" /><path d="M 79.16333360222342 97.38593545837743 l -15.744151265356304 -1.9751829191401546 a36.86756586973829,36.86756586973829 0 0,0 0.08441619390551754,-0.6289986963738197 l 15.707819072392953 2.245899957578634" fill="#ff7d0b" stroke="none" /><path d="M 79.21141760316559 97.0276538004421 l -15.729779274810914 -2.2490398217094603 a36.88974940500655,36.88974940500655 0 0,0 0.09528816655821966,-0.6278299609991731 l 15.688735214813393 2.5194688951007254" fill="#ff7d0b" stroke="none" /><path d="M 79.32604984820605 96.31383870115002 l -15.59936402471189 -2.781363577466887 a36.84538233447003,36.84538233447003 0 0,0 0.11670209205912604,-0.6234272422719264 l 15.549176208742903 3.049468897201386" fill="#ff7d0b" stroke="none" /><path d="M 79.54389044137918 95.25157060432595 l -15.472038130334823 -3.591488423472488 a36.88341125207276,36.88341125207276 0 0,0 0.14888111850795066,-0.6172083533694451 l 15.407924211566058 3.85728200850133" fill="#ff7d0b" stroke="none" /><path d="M 79.62865764111835 94.90015583598534 l -15.426369452042795 -3.861899664537046 a36.90242571087413,36.90242571087413 0 0,0 0.15956550559194532,-0.6148709839120174 l 15.357607614580543 4.126867073997928" fill="#ff7d0b" stroke="none" /><path d="M 79.71946130924805 94.55025226153421 l -15.348426103451857 -4.124399835811001 a36.892918481473444,36.892918481473444 0 0,0 0.17008202768683037,-0.6118755471896948 l 15.275157305198665 4.387986686419639" fill="#ff7d0b" stroke="none" /><path d="M 79.81627453868168 94.20196356495316 l -15.969621086970411 -4.587480398185078 a37.61546791592528,37.61546791592528 0 0,0 0.1841261085305195,-0.620781703973243 l 15.888289081328185 4.861691488904861" fill="#ff880c" stroke="none" /><path d="M 80.14247586403 93.16781622104843 l -33.211448983460535 -11.426737868557185 a56.122224899594855,56.122224899594855 0 0,0 0.3221600623688169,-0.9107898788572132 l 33.00983584028191 11.99672537384101" fill="#7cff26" stroke="none" /><path d="M 80.38941819471856 92.48833698450439 l -58.83174541584431 -22.534989046486853 a84.0,84.0 0 0,0 0.5288258004732356,-1.3458039804169464 l 58.435126065489385 23.544342031799562" fill="#4dd2ff" stroke="none" /><path d="M 80.52162464483688 92.15188598940014 l -14.697252607470393 -5.921731766784079 a36.84538233447003,36.84538233447003 0 0,0 0.24208874764491387,-0.5862371047293703 l 14.59314217293928 6.173843441966761" fill="#ff7d0b" stroke="none" /><path d="M 80.65960295795068 91.81776055985345 l -14.998831525346992 -6.345476289653438 a37.2858839633683,37.2858839633683 0 0,0 0.2551584722506587,-0.5889409335949555 l 14.887382343253652 6.602716367834992" fill="#ff830c" stroke="none" /><path d="M 80.803312248108 91.48605970444005 l -14.502089124407041 -6.431834624904061 a36.864396793271396,36.864396793271396 0 0,0 0.26225978416468554,-0.5778546705551372 l 14.389227023279004 6.68051130430127" fill="#ff7d0b" stroke="none" /><path d="M 81.43458229118936 90.18545643968196 l -14.022396092240024 -7.412890968890559 a36.86122771680451,36.86122771680451 0 0,0 0.3013702024685198,-0.5583932149727453 l 13.892717790553032 7.653165167195777" fill="#ff7d0b" stroke="none" /><path d="M 81.6062741919709 89.86733742301443 l -14.683811610794313 -8.088959787106026 a37.7644145098693,37.7644145098693 0 0,0 0.3185560695946954,-0.5666757023675193 l 14.542397899907186 8.340518999408328" fill="#ff8a0c" stroke="none" /><line stroke="#e1ed5e" stroke-width="0.3" x1="26.266209847984243" x2="21.928928074336255" y1="57.711370442889674" y2="55.22380399835377" /><path d="M 25.398753493254645 57.213857153982495 a86.0,86.0 0 0,1 29.58750427330803,-30.492523968695096" fill="none" id="id11" stroke="none" /><text fill="#e1ed5e" style="font-size:6.75px; font-family:Arial;" text-anchor="middle"><textPath startOffset="21.46611528233685" xlink:href="#id11">November</textPath></text><path d="M 81.78341655067845 89.55222093294921 l -13.747926634675961 -7.884864936869763 a36.84855141093693,36.84855141093693 0 0,0 0.32030221761187583,-0.5475003173880175 l 13.61016474259376 8.120344666611672" fill="#ff7d0b" stroke="none" /><path d="M 82.15384107792192 88.93136811851018 l -13.530311977923175 -8.391836202919182 a36.92144016967549,36.92144016967549 0 0,0 0.3396287308398613,-0.5372110901725333 l 13.38385565083735 8.623494940805932" fill="#ff7e0b" stroke="none" /><path d="M 82.34701348167596 88.62581576622439 l -13.322584018677862 -8.584016361260042 a36.84855141093693,36.84855141093693 0 0,0 0.3481369801007877,-0.5302365049988281 l 13.172850403219154 8.812070930236539" fill="#ff7d0b" stroke="none" /><path d="M 82.95767976084542 87.72973835380427 l -25.588824027212326 -18.42363959990526 a52.53122914196077,52.53122914196077 0 0,0 0.5346613180119231,-0.7292774369037949 l 25.26790009668677 18.861379480480558" fill="#a8ff21" stroke="none" /><path d="M 83.17141714833178 87.43820079747576 l -12.835009856659733 -9.580772071119235 a37.01651246368231,37.01651246368231 0 0,0 0.3855429468953081,-0.507329325277976 l 12.668190969540316 9.800286172278236" fill="#ff7f0b" stroke="none" /><path d="M 83.6137871275137 86.86637796730984 l -12.396232718062102 -9.935635306048122 a36.88658032853966,36.88658032853966 0 0,0 0.40136377272459944,-0.4920245275736698 l 12.22337045326111 10.147544003229873" fill="#ff7d0b" stroke="none" /><path d="M 83.84228863543731 86.58626213691792 l -12.213617115576477 -10.139447020183209 a36.87390402267208,36.87390402267208 0 0,0 0.40963287846589674,-0.4848761232426589 l 12.037273623623458 10.348182093054984" fill="#ff7d0b" stroke="none" /><path d="M 84.07557802195018 86.31012108654704 l -12.0637080436394 -10.370907188487925 a36.90876386380791,36.90876386380791 0 0,0 0.41831362404144534,-0.47820478510100417 l 11.88340255602011 10.577027529791872" fill="#ff7e0b" stroke="none" /><path d="M 84.80347519578584 85.50635884689758 l -11.532921676331586 -10.999490368826478 a36.93728555200996,36.93728555200996 0 0,0 0.44278260834492356,-0.45632639958954757 l 11.341874804283544 11.196380963966151" fill="#ff7e0b" stroke="none" /><path d="M 85.31137513191541 84.99185889309783 l -11.176283369963093 -11.419396939708431 a36.97848354607958,36.97848354607958 0 0,0 0.4587387899788509,-0.4413063525013829 l 10.978061336371814 11.610086378972127" fill="#ff7f0b" stroke="none" /><path d="M 85.57189188830299 84.74124197986013 l -11.70310981416075 -12.376877089840379 a38.033786009555286,38.033786009555286 0 0,0 0.4795736516554161,-0.44571144338903756 l 11.48832827871048 12.576493119304065" fill="#ff8f0d" stroke="none" /><path d="M 85.83668400450813 84.49514656593479 l -11.001009423353084 -12.043015829778234 a37.31123657510345,37.31123657510345 0 0,0 0.4779196513290547,-0.4290809817586392 l 10.792078784428059 12.230595820306153" fill="#ff840c" stroke="none" /><path d="M 86.10567301691215 84.25364557470407 l -10.540466300625582 -11.94544495602857 a36.930947399076175,36.930947399076175 0 0,0 0.4802890836446435,-0.41650196048941124 l 10.333283418334164 12.125111909937662" fill="#ff7e0b" stroke="none" /><path d="M 87.22198572758235 83.33499621200491 l -9.672401604331537 -12.614683779398918 a36.896087557940334,36.896087557940334 0 0,0 0.5073279616010707,-0.38210890266626085 l 9.453827488972077 12.779309271571034" fill="#ff7d0b" stroke="none" /><path d="M 87.51073957382395 83.11751280151077 l -9.046724869829738 -12.229004087627784 a36.21156704109123,36.21156704109123 0 0,0 0.504297256349341,-0.3663934034942188 l 8.834882297126615 12.38291672593867" fill="#ff730a" stroke="none" /><path d="M 87.80319425747018 82.90503203632743 l -9.21956779714734 -12.922089558380586 a36.87390402267208,36.87390402267208 0 0,0 0.5198673687187623,-0.3642003143223723 l 8.995769288844917 13.0788747154669" fill="#ff7d0b" stroke="none" /><path d="M 88.09926311788651 82.69761687909137 l -8.997565210044527 -13.081485790474982 a36.877073099138975,36.877073099138975 0 0,0 0.5261046659299486,-0.35522821891653095 l 8.77105584970804 13.234425921690178" fill="#ff7d0b" stroke="none" /><path d="M 88.39885842347998 82.49532879139004 l -5.595268362408561 -8.442559929285789 a31.128368388193245,31.128368388193245 0 0,0 0.44918676453126544,-0.2921635665938671 l 5.449114572093008 8.537622420039192" fill="#ff2303" stroke="none" /><line stroke="#e1ed5e" stroke-width="0.3" x1="56.762969772571076" x2="54.21961505331055" y1="26.818313649435495" y2="22.513508569990535" /><path d="M 56.25429882871897 25.957352633546506 a86.0,86.0 0 0,1 42.265352541879196,-11.944610805530505" fill="none" id="id12" stroke="none" /><text fill="#e1ed5e" style="font-size:6.75px; font-family:Arial;" text-anchor="middle"><textPath startOffset="22.20632615414155" xlink:href="#id12">December</textPath></text><path d="M 90.26544431104013 81.39251694778311 l -14.750492623850038 -28.19538459484293 a52.82069680408272,52.82069680408272 0 0,0 0.8092621540460629,-0.4145355072149857 l 14.26296998221521 28.445112627370424" fill="#a4ff21" stroke="none" /><path d="M 90.91171255644093 81.06846463323043 l -13.772592413700327 -28.689268686902675 a52.82386588054962,52.82386588054962 0 0,0 0.8231009466430014,-0.38645693102762624 l 13.276713255757716 28.92209060057031" fill="#a4ff21" stroke="none" /><path d="M 91.23893434514133 80.91482961587045 l -13.272746900473184 -28.913450262808738 a52.814358651148936,52.814358651148936 0 0,0 0.829481899278949,-0.37216434938945336 l 12.773082882727461 29.13763494271472" fill="#a4ff21" stroke="none" /><path d="M 92.91201910852362 80.23233633223022 l -8.606290275526781 -24.002075372183306 a46.49838925262918,46.49838925262918 0 0,0 0.7557493825710793,-0.263666120050932 l 8.191858888892417 24.14666234540645" fill="#f7ff19" stroke="none" /><path d="M 93.25333710446033 80.11325718540243 l -8.165387557658113 -24.06863435373598 a46.415993264489934,46.415993264489934 0 0,0 0.7588289433514297,-0.25017397201981434 l 7.749875792064273 24.20562205001503" fill="#f8ff18" stroke="none" /><path d="M 93.94186890950719 79.89281104454417 l -7.345780914354561 -24.380952254747775 a46.46352941149334,46.46352941149334 0 0,0 0.7677761535658911,-0.22413491303426006 l 6.925014543065249 24.503785496700733" fill="#f7ff18" stroke="none" /><path d="M 94.28887869178378 79.79150937346287 l -6.915534124898018 -24.470239555137116 a46.42866957035751,46.42866957035751 0 0,0 0.7709416704627614,-0.21072748102779362 l 6.493294565211534 24.585653576991206" fill="#f8ff18" stroke="none" /><path d="M 96.04723909329186 79.375362276772 l -4.967102052887964 -25.917246904881054 a47.388933095757594,47.388933095757594 0 0,0 0.8024636102180939,-0.14664509554904637 l 4.520243321566977 25.998907481780837" fill="#ebff1a" stroke="none" /><path d="M 96.40284397218896 79.31037775812273 l -2.721805135839338 -15.654900605127601 a36.88974940500655,36.88974940500655 0 0,0 0.6265474383629169,-0.1033856957954908 l 2.451928491337535 15.69943256386272" fill="#ff7d0b" stroke="none" /><path d="M 96.75951476605007 79.25152402106235 l -2.4514394748853348 -15.696301444484211 a36.88658032853966,36.88658032853966 0 0,0 0.6281802538760088,-0.09257744017873991 l 2.180890240580677 15.73617336882392" fill="#ff7d0b" stroke="none" /><path d="M 97.47563105711357 79.15227682838746 l -1.9047424311093983 -15.730483069399567 a36.84538233447003,36.84538233447003 0 0,0 0.630289912212213,-0.07082041556867318 l 1.6336858153874674 15.760939438438838" fill="#ff7d0b" stroke="none" /><path d="M 99.27714615592234 79.0124445844662 l -0.5454235967310447 -15.835992372619529 a36.84538233447003,36.84538233447003 0 0,0 0.6340447519875523,-0.01637550532961138 l 0.27275220954861334 15.8430346700915" fill="#ff7d0b" stroke="none" /></svg>