<?xml version="1.0" encoding="utf-8" ?>
<svg baseProfile="full" height="200mm" version="1.1" viewBox="0,0,200,200" width="200mm" xmlns="http://www.w3.org/2000/svg" xmlns:ev="http://www.w3.org/2001/xml-events" xmlns:xlink="http://www.w3.org/1999/xlink"><defs /><rect fill="#1a1a1a" height="200" width="200" x="0" y="0" /><text alignment-baseline="middle" fill="#e1ed5e" style="dominant-baseline: central; font-size:9.0px; font-family:Arial;" text-anchor="middle" x="100.0" y="100.0">2023</text><line stroke="#e1ed5e" stroke-width="0.3" x1="100.0" x2="100.0" y1="15.0" y2="10.0" /><path d="M 100.0 14.0 a86.0,86.0 0 0,1 42.46469731375804,11.215312516191453" fill="none" id="id49" stroke="none" /><text fill="#e1ed5e" style="font-size:6.75px; font-family:Arial;" text-anchor="middle"><textPath startOffset="22.20632615414155" xlink:href="#id49">January</textPath></text><line stroke="#e1ed5e" stroke-width="0.3" x1="143.23703022742887" x2="145.7803849466894" y1="26.81831364943548" y2="22.513508569990506" /><path d="M 143.74570117128098 25.957352633546492 a86.0,86.0 0 0,1 28.547481713284135,27.462654790039103" fill="none" id="id50" stroke="none" /><text fill="#e1ed5e" style="font-size:6.75px; font-family:Arial;" text-anchor="middle"><textPath startOffset="19.985693538727396" xlink:href="#id50">February</textPath></text><line stroke="#e1ed5e" stroke-width="0.3" x1="172.23445277983987" x2="176.4835382374775" y1="55.19839476539836" y2="52.563006222186495" /><path d="M 173.08426987136738 54.67131705675599 a86.0,86.0 0 0,1 12.851231095245387,41.99856678651699" fill="none" id="id51" stroke="none" /><text fill="#e1ed5e" style="font-size:6.75px; font-family:Arial;" text-anchor="middle"><textPath startOffset="22.20632615414155" xlink:href="#id51">March</textPath></text><line stroke="#e1ed5e" stroke-width="0.3" x1="184.98032266829074" x2="189.97916517819016" y1="98.17113171792111" y2="98.06355123074" /><path d="M 185.9800911702706 98.14961562048488 a86.0,86.0 0 0,1 -9.607161424134198,41.387399972396054" fill="none" id="id52" stroke="none" /><text fill="#e1ed5e" style="font-size:6.75px; font-family:Arial;" text-anchor="middle"><textPath startOffset="21.466115282336823" xlink:href="#id52">April</textPath></text><line stroke="#e1ed5e" stroke-width="0.3" x1="174.80103733775053" x2="179.2010983576182" y1="140.37084112569926" y2="142.7455964860345" /><path d="M 175.68104954172406 140.8457921977663 a86.0,86.0 0 0,1 -30.038265399797805,32.042727171017184" fill="none" id="id53" stroke="none" /><text fill="#e1ed5e" style="font-size:6.75px; font-family:Arial;" text-anchor="middle"><textPath startOffset="22.206326154141568" xlink:href="#id53">May</textPath></text><path d="M 115.32070863581623 114.36230785411682 l 13.226276106662443 12.3988944456103 a39.129174364075595,39.129174364075595 0 0,0 -0.46487965018033495,0.4874244546497323 l -13.010889905103143 -12.624726016842539" fill="#ff1702" stroke="none" /><path d="M 114.81725581225074 114.88116024355365 l 12.665311028945316 12.719934469941057 a38.95012079010942,38.95012079010942 0 0,0 -0.47917931243301604,0.46897781109202646 l -12.444481764136507 -12.936062383955656" fill="#ff1402" stroke="none" /><path d="M 113.75828350139079 115.86535959552629 l 13.801296466721272 15.914959980790117 a42.06565297712093,42.06565297712093 0 0,0 -0.5511292087778801,0.4696842682133497 l -13.525301781366345 -16.150168639226415" fill="#ff4f07" stroke="none" /><path d="M 113.48314897796784 116.09983520530334 l 12.214732802976409 14.585256420890834 a40.0244422339065,40.0244422339065 0 0,0 -0.532000829324798,0.43780046410224865 l -11.961861845106919 -14.793352003850263" fill="#ff2904" stroke="none" /><path d="M 113.20401910651253 116.32954008644616 l 12.350270535606857 15.273700845387042 a40.64217706408981,40.64217706408981 0 0,0 -0.5477839856021594,0.435192727748215 l -12.085529057287346 -15.484027487140382" fill="#ff3505" stroke="none" /><line stroke="#e1ed5e" stroke-width="0.3" x1="143.8653032363475" x2="146.44561519142675" y1="172.8068346515853" y2="177.08958963109032" /><path d="M 144.38136562736335 173.6633856474863 a86.0,86.0 0 0,1 -40.68145358897372,12.25698825130547" fill="none" id="id54" stroke="none" /><text fill="#e1ed5e" style="font-size:6.75px; font-family:Arial;" text-anchor="middle"><textPath startOffset="21.466115282336833" xlink:href="#id54">June</textPath></text><path d="M 104.13013068566511 120.58985236759428 l 5.308658810834288 26.46514347945008 a47.99232627540145,47.99232627540145 0 0,0 -0.8113728609432785,0.15550153988346394 l -4.852318335319306 -26.55260221768201" fill="#ffba11" stroke="none" /><path d="M 102.34483914955558 120.86867818915974 l 2.020287020570631 17.9802182550626 a39.09336364928237,39.09336364928237 0 0,0 -0.6693666313012087,0.06938258820940243 l -1.71048779266382 -18.01233021172776" fill="#ff1702" stroke="none" /><path d="M 101.98527174616119 120.90594882070398 l 3.5504682287108973 37.38828562008805 a58.556487139405995,58.556487139405995 0 0,0 -1.0042595988738765,0.086651743894851 l -2.906364312095479 -37.44386161626156" fill="#9aff22" stroke="none" /><path d="M 101.62511606390274 120.93702456842531 l 2.453955278532107 31.61529388433813 a52.71038794941026,52.71038794941026 0 0,0 -0.9052061327784217,0.06242831473765173 l -1.9093863849747548 -31.652850543592066" fill="#f5ff19" stroke="none" /><path d="M 101.26447882468166 120.96189622390904 l 1.3304250700501679 22.055120028680186 a43.09521102742646,43.09521102742646 0 0,0 -0.7408516845304733,0.038293569780736454 l -0.9505853171062149 -22.074753405223124" fill="#ff6209" stroke="none" /><path d="M 100.90346689309514 120.98055641714683 l 1.4459065155659363 33.57723836434668 a54.60835583345175,54.60835583345175 0 0,0 -0.9394708376730905,0.032357275202630355 l -0.8677153262181935 -33.5971524379754" fill="#d7ff1c" stroke="none" /><line stroke="#e1ed5e" stroke-width="0.3" x1="102.19456741930631" x2="102.32365962044197" y1="184.97166512339345" y2="189.96999836594603" /><path d="M 102.22038585953345 185.97133177190398 a86.0,86.0 0 0,1 -42.740103519485714,-10.115201625700543" fill="none" id="id55" stroke="none" /><text fill="#e1ed5e" style="font-size:6.75px; font-family:Arial;" text-anchor="middle"><textPath startOffset="22.20632615414155" xlink:href="#id55">July</textPath></text><path d="M 100.18074693466247 120.99922214144158 l 0.35106566760928515 40.78689331095971 a61.78840414949553,61.78840414949553 0 0,0 -1.063625204543453,0.0 l 0.35106566760925706 -40.78689331095971" fill="#6cff28" stroke="none" /><path d="M 99.81925306533755 120.99922214144158 l -0.38620305664126353 44.86916358088895 a65.8708256359244,65.8708256359244 0 0,0 -1.1337319830892627,-0.01951822424571676 l 1.158494729623194 -44.85586787936408" fill="#34ff2f" stroke="none" /><path d="M 99.45781275523022 120.99299961872073 l -1.3912569388671197 53.86821004906072 a74.8861730851215,74.8861730851215 0 0,0 -1.2883262036487861,-0.04437255937126653 l 2.3183034941905487 -53.83628069126336" fill="#3effb4" stroke="none" /><path d="M 99.09653310690486 120.98055641714683 l -2.7104006792854114 62.94166925144049 a84.0,84.0 0 0,0 -1.4440477263460443,-0.07464077295119242 l 3.793436474044945 -62.885688671727095" fill="#4dd2ff" stroke="none" /><path d="M 98.73552117531835 120.96189622390904 l -2.6964287683917596 44.700044725874506 a65.7812988489413,65.7812988489413 0 0,0 -1.129675524250397,-0.07790903820200741 l 3.4654670534210865 -44.64700734315621" fill="#36ff2f" stroke="none" /><path d="M 98.37488393609728 120.93702456842531 l -3.0871893622639672 39.7735035428037 a60.89313627966463,60.89313627966463 0 0,0 -1.0443337638885664,-0.09010951147561079 l 3.7713674438940754 -39.71446977904942" fill="#78ff26" stroke="none" /><path d="M 97.65516085044442 120.86867818915974 l -3.166882375639657 28.18472609205261 a49.36208611624272,49.36208611624272 0 0,0 -0.8435570975283458,-0.10214301681881612 l 3.6515668962193923 -28.126037546508446" fill="#ffd213" stroke="none" /><line stroke="#e1ed5e" stroke-width="0.3" x1="58.666819895761336" x2="56.23545636021788" y1="174.27360380694188" y2="178.64263932499728" /><path d="M 58.180547188652646 175.14741091055294 a86.0,86.0 0 0,1 -31.652253787137756,-30.449443065178592" fill="none" id="id56" stroke="none" /><text fill="#e1ed5e" style="font-size:6.75px; font-family:Arial;" text-anchor="middle"><textPath startOffset="22.20632615414155" xlink:href="#id56">August</textPath></text><path d="M 82.85270091963577 112.12312394758628 l -13.823593531747377 9.77326732338454 a37.929515418502206,37.929515418502206 0 0,0 -0.3723217095309477,-0.5363571916446029 l 13.989776148440459 -9.533868869552924" fill="#ff0000" stroke="none" /><line stroke="#e1ed5e" stroke-width="0.3" x1="26.63291911575756" x2="22.317208475507996" y1="142.92168965132927" y2="145.44649492493687" /><path d="M 25.769776987707644 143.4266507060508 a86.0,86.0 0 0,1 -11.730757126820373,-40.83630448921669" fill="none" id="id57" stroke="none" /><text fill="#e1ed5e" style="font-size:6.75px; font-family:Arial;" text-anchor="middle"><textPath startOffset="21.46611528233685" xlink:href="#id57">September</textPath></text><line stroke="#e1ed5e" stroke-width="0.3" x1="15.007084014347285" x2="10.007500721073583" y1="101.09737516637583" y2="101.16192664675087" /><path d="M 14.007167355692545 101.11028546245083 a86.0,86.0 0 0,1 10.666146001902534,-42.60595125391555" fill="none" id="id58" stroke="none" /><text fill="#e1ed5e" style="font-size:6.75px; font-family:Arial;" text-anchor="middle"><textPath startOffset="22.20632615414155" xlink:href="#id58">October</textPath></text><line stroke="#e1ed5e" stroke-width="0.3" x1="26.266209847984243" x2="21.928928074336255" y1="57.711370442889674" y2="55.22380399835377" /><path d="M 25.398753493254645 57.213857153982495 a86.0,86.0 0 0,1 29.58750427330803,-30.492523968695096" fill="none" id="id59" stroke="none" /><text fill="#e1ed5e" style="font-size:6.75px; font-family:Arial;" text-anchor="middle"><textPath startOffset="21.46611528233685" xlink:href="#id59">November</textPath></text><line stroke="#e1ed5e" stroke-width="0.3" x1="56.762969772571076" x2="54.21961505331055" y1="26.818313649435495" y2="22.513508569990535" /><path d="M 56.25429882871897 25.957352633546506 a86.0,86.0 0 0,1 42.265352541879196,-11.944610805530505" fill="none" id="id60" stroke="none" /><text fill="#e1ed5e" style="font-size:6.75px; font-family:Arial;" text-anchor="middle"><textPath startOffset="22.20632615414155" xlink:href="#id60">December</textPath></text></svg>